<mxfile host="app.diagrams.net" modified="2022-08-25T10:02:57.331Z" agent="5.0 (Macintosh; Intel Mac OS X 10_15_7) AppleWebKit/537.36 (KHTML, like Gecko) Chrome/104.0.0.0 Safari/537.36" etag="VWU9F_3b8A1RVPuUQVGD" version="20.2.7" type="github">
  <diagram id="FuCkCItloimNFuOEy68N" name="Page-1">
    <mxGraphModel dx="1678" dy="933" grid="1" gridSize="10" guides="1" tooltips="1" connect="1" arrows="1" fold="1" page="1" pageScale="1" pageWidth="850" pageHeight="1100" math="0" shadow="0">
      <root>
        <mxCell id="0" />
        <mxCell id="1" parent="0" />
        <mxCell id="aQw6tkA5pOAqd_6tdOvo-39" value="&lt;b&gt;&amp;nbsp; &amp;nbsp; &amp;nbsp;spine01&lt;/b&gt;" style="shape=ext;double=1;rounded=0;whiteSpace=wrap;html=1;fillStyle=auto;strokeWidth=3;strokeColor=#009900;glass=0;shadow=0;sketch=0;align=left;" vertex="1" parent="1">
          <mxGeometry x="159" y="80" width="160" height="40" as="geometry" />
        </mxCell>
        <object label="" id="aQw6tkA5pOAqd_6tdOvo-40">
          <mxCell style="verticalLabelPosition=bottom;verticalAlign=top;html=1;shape=mxgraph.basic.rect;fillColor2=none;strokeWidth=1;size=20;indent=5;rounded=0;shadow=0;glass=0;sketch=0;fillStyle=auto;fillColor=#FF8000;strokeColor=#d79b00;" vertex="1" parent="1">
            <mxGeometry x="320" y="120" width="40" height="20" as="geometry" />
          </mxCell>
        </object>
        <mxCell id="aQw6tkA5pOAqd_6tdOvo-41" value="" style="verticalLabelPosition=bottom;verticalAlign=top;html=1;shape=mxgraph.basic.rect;fillColor2=none;strokeWidth=1;size=20;indent=5;rounded=0;shadow=0;glass=0;sketch=0;fillStyle=auto;fillColor=#000000;" vertex="1" parent="1">
          <mxGeometry x="269" y="95" width="5" height="10" as="geometry" />
        </mxCell>
        <mxCell id="aQw6tkA5pOAqd_6tdOvo-42" value="" style="verticalLabelPosition=bottom;verticalAlign=top;html=1;shape=mxgraph.basic.rect;fillColor2=none;strokeWidth=1;size=20;indent=5;rounded=0;shadow=0;glass=0;sketch=0;fillStyle=auto;fillColor=#000000;" vertex="1" parent="1">
          <mxGeometry x="279" y="95" width="5" height="10" as="geometry" />
        </mxCell>
        <mxCell id="aQw6tkA5pOAqd_6tdOvo-43" value="" style="verticalLabelPosition=bottom;verticalAlign=top;html=1;shape=mxgraph.basic.rect;fillColor2=none;strokeWidth=1;size=20;indent=5;rounded=0;shadow=0;glass=0;sketch=0;fillStyle=auto;fillColor=#000000;" vertex="1" parent="1">
          <mxGeometry x="289" y="95" width="5" height="10" as="geometry" />
        </mxCell>
        <mxCell id="aQw6tkA5pOAqd_6tdOvo-44" value="" style="verticalLabelPosition=bottom;verticalAlign=top;html=1;shape=mxgraph.basic.rect;fillColor2=none;strokeWidth=1;size=20;indent=5;rounded=0;shadow=0;glass=0;sketch=0;fillStyle=solid;fillColor=#0D0D0D;" vertex="1" parent="1">
          <mxGeometry x="299" y="95" width="5" height="10" as="geometry" />
        </mxCell>
        <mxCell id="aQw6tkA5pOAqd_6tdOvo-45" value="&lt;font style=&quot;font-size: 10px;&quot;&gt;&lt;b style=&quot;&quot;&gt;swp6&lt;/b&gt;&lt;/font&gt;" style="text;html=1;align=center;verticalAlign=middle;resizable=0;points=[];autosize=1;strokeColor=none;fillColor=none;labelBorderColor=none;labelBackgroundColor=none;" vertex="1" parent="1">
          <mxGeometry x="315" y="115" width="50" height="30" as="geometry" />
        </mxCell>
        <object label="" id="aQw6tkA5pOAqd_6tdOvo-46">
          <mxCell style="verticalLabelPosition=bottom;verticalAlign=top;html=1;shape=mxgraph.basic.rect;fillColor2=none;strokeWidth=1;size=20;indent=5;rounded=0;shadow=0;glass=0;sketch=0;fillStyle=auto;fillColor=#FF8000;strokeColor=#d79b00;" vertex="1" parent="1">
            <mxGeometry x="279" y="120" width="40" height="20" as="geometry" />
          </mxCell>
        </object>
        <mxCell id="aQw6tkA5pOAqd_6tdOvo-47" value="&lt;font style=&quot;font-size: 10px;&quot;&gt;&lt;b style=&quot;&quot;&gt;swp5&lt;/b&gt;&lt;/font&gt;" style="text;html=1;align=center;verticalAlign=middle;resizable=0;points=[];autosize=1;strokeColor=none;fillColor=none;labelBorderColor=none;labelBackgroundColor=none;" vertex="1" parent="1">
          <mxGeometry x="274" y="115" width="50" height="30" as="geometry" />
        </mxCell>
        <object label="" id="aQw6tkA5pOAqd_6tdOvo-48">
          <mxCell style="verticalLabelPosition=bottom;verticalAlign=top;html=1;shape=mxgraph.basic.rect;fillColor2=none;strokeWidth=1;size=20;indent=5;rounded=0;shadow=0;glass=0;sketch=0;fillStyle=auto;fillColor=#FF8000;strokeColor=#d79b00;" vertex="1" parent="1">
            <mxGeometry x="239" y="120" width="40" height="20" as="geometry" />
          </mxCell>
        </object>
        <mxCell id="aQw6tkA5pOAqd_6tdOvo-49" value="&lt;font style=&quot;font-size: 10px;&quot;&gt;&lt;b style=&quot;&quot;&gt;swp4&lt;/b&gt;&lt;/font&gt;" style="text;html=1;align=center;verticalAlign=middle;resizable=0;points=[];autosize=1;strokeColor=none;fillColor=none;labelBorderColor=none;labelBackgroundColor=none;" vertex="1" parent="1">
          <mxGeometry x="234" y="115" width="50" height="30" as="geometry" />
        </mxCell>
        <object label="" id="aQw6tkA5pOAqd_6tdOvo-50">
          <mxCell style="verticalLabelPosition=bottom;verticalAlign=top;html=1;shape=mxgraph.basic.rect;fillColor2=none;strokeWidth=1;size=20;indent=5;rounded=0;shadow=0;glass=0;sketch=0;fillStyle=auto;fillColor=#FF8000;strokeColor=#d79b00;" vertex="1" parent="1">
            <mxGeometry x="201" y="120" width="40" height="20" as="geometry" />
          </mxCell>
        </object>
        <mxCell id="aQw6tkA5pOAqd_6tdOvo-51" value="&lt;font style=&quot;font-size: 10px;&quot;&gt;&lt;b style=&quot;&quot;&gt;swp3&lt;/b&gt;&lt;/font&gt;" style="text;html=1;align=center;verticalAlign=middle;resizable=0;points=[];autosize=1;strokeColor=none;fillColor=none;labelBorderColor=none;labelBackgroundColor=none;" vertex="1" parent="1">
          <mxGeometry x="196" y="115" width="50" height="30" as="geometry" />
        </mxCell>
        <object label="" id="aQw6tkA5pOAqd_6tdOvo-52">
          <mxCell style="verticalLabelPosition=bottom;verticalAlign=top;html=1;shape=mxgraph.basic.rect;fillColor2=none;strokeWidth=1;size=20;indent=5;rounded=0;shadow=0;glass=0;sketch=0;fillStyle=auto;fillColor=#FF8000;strokeColor=#d79b00;" vertex="1" parent="1">
            <mxGeometry x="160" y="120" width="40" height="20" as="geometry" />
          </mxCell>
        </object>
        <mxCell id="aQw6tkA5pOAqd_6tdOvo-53" value="&lt;font style=&quot;font-size: 10px;&quot;&gt;&lt;b style=&quot;&quot;&gt;swp2&lt;/b&gt;&lt;/font&gt;" style="text;html=1;align=center;verticalAlign=middle;resizable=0;points=[];autosize=1;strokeColor=none;fillColor=none;labelBorderColor=none;labelBackgroundColor=none;" vertex="1" parent="1">
          <mxGeometry x="155" y="115" width="50" height="30" as="geometry" />
        </mxCell>
        <object label="" id="aQw6tkA5pOAqd_6tdOvo-54">
          <mxCell style="verticalLabelPosition=bottom;verticalAlign=top;html=1;shape=mxgraph.basic.rect;fillColor2=none;strokeWidth=1;size=20;indent=5;rounded=0;shadow=0;glass=0;sketch=0;fillStyle=auto;fillColor=#FF8000;strokeColor=#d79b00;" vertex="1" parent="1">
            <mxGeometry x="119" y="120" width="40" height="20" as="geometry" />
          </mxCell>
        </object>
        <mxCell id="aQw6tkA5pOAqd_6tdOvo-55" value="&lt;font style=&quot;font-size: 10px;&quot;&gt;&lt;b style=&quot;&quot;&gt;swp1&lt;/b&gt;&lt;/font&gt;" style="text;html=1;align=center;verticalAlign=middle;resizable=0;points=[];autosize=1;strokeColor=none;fillColor=none;labelBorderColor=none;labelBackgroundColor=none;" vertex="1" parent="1">
          <mxGeometry x="114" y="115" width="50" height="30" as="geometry" />
        </mxCell>
        <mxCell id="aQw6tkA5pOAqd_6tdOvo-83" value="&lt;b&gt;&amp;nbsp; &amp;nbsp;leaf01&lt;/b&gt;" style="shape=ext;double=1;rounded=0;whiteSpace=wrap;html=1;fillStyle=auto;strokeWidth=3;strokeColor=#009900;glass=0;shadow=0;sketch=0;align=left;" vertex="1" parent="1">
          <mxGeometry x="42" y="401" width="160" height="40" as="geometry" />
        </mxCell>
        <mxCell id="aQw6tkA5pOAqd_6tdOvo-84" value="" style="verticalLabelPosition=bottom;verticalAlign=top;html=1;shape=mxgraph.basic.rect;fillColor2=none;strokeWidth=1;size=20;indent=5;rounded=0;shadow=0;glass=0;sketch=0;fillStyle=auto;fillColor=#000000;" vertex="1" parent="1">
          <mxGeometry x="152" y="416" width="5" height="10" as="geometry" />
        </mxCell>
        <mxCell id="aQw6tkA5pOAqd_6tdOvo-85" value="" style="verticalLabelPosition=bottom;verticalAlign=top;html=1;shape=mxgraph.basic.rect;fillColor2=none;strokeWidth=1;size=20;indent=5;rounded=0;shadow=0;glass=0;sketch=0;fillStyle=auto;fillColor=#000000;" vertex="1" parent="1">
          <mxGeometry x="162" y="416" width="5" height="10" as="geometry" />
        </mxCell>
        <mxCell id="aQw6tkA5pOAqd_6tdOvo-86" value="" style="verticalLabelPosition=bottom;verticalAlign=top;html=1;shape=mxgraph.basic.rect;fillColor2=none;strokeWidth=1;size=20;indent=5;rounded=0;shadow=0;glass=0;sketch=0;fillStyle=auto;fillColor=#000000;" vertex="1" parent="1">
          <mxGeometry x="172" y="416" width="5" height="10" as="geometry" />
        </mxCell>
        <mxCell id="aQw6tkA5pOAqd_6tdOvo-87" value="" style="verticalLabelPosition=bottom;verticalAlign=top;html=1;shape=mxgraph.basic.rect;fillColor2=none;strokeWidth=1;size=20;indent=5;rounded=0;shadow=0;glass=0;sketch=0;fillStyle=solid;fillColor=#0D0D0D;" vertex="1" parent="1">
          <mxGeometry x="182" y="416" width="5" height="10" as="geometry" />
        </mxCell>
        <object label="" id="aQw6tkA5pOAqd_6tdOvo-88">
          <mxCell style="verticalLabelPosition=bottom;verticalAlign=top;html=1;shape=mxgraph.basic.rect;fillColor2=none;strokeWidth=1;size=20;indent=5;rounded=0;shadow=0;glass=0;sketch=0;fillStyle=auto;fillColor=#FF8000;strokeColor=#d79b00;" vertex="1" parent="1">
            <mxGeometry x="162" y="376" width="40" height="20" as="geometry" />
          </mxCell>
        </object>
        <mxCell id="aQw6tkA5pOAqd_6tdOvo-89" value="&lt;font style=&quot;font-size: 10px;&quot;&gt;&lt;b style=&quot;&quot;&gt;swp4&lt;/b&gt;&lt;/font&gt;" style="text;html=1;align=center;verticalAlign=middle;resizable=0;points=[];autosize=1;strokeColor=none;fillColor=none;labelBorderColor=none;labelBackgroundColor=none;" vertex="1" parent="1">
          <mxGeometry x="157" y="371" width="50" height="30" as="geometry" />
        </mxCell>
        <object label="" id="aQw6tkA5pOAqd_6tdOvo-90">
          <mxCell style="verticalLabelPosition=bottom;verticalAlign=top;html=1;shape=mxgraph.basic.rect;fillColor2=none;strokeWidth=1;size=20;indent=5;rounded=0;shadow=0;glass=0;sketch=0;fillStyle=auto;fillColor=#FF8000;strokeColor=#d79b00;" vertex="1" parent="1">
            <mxGeometry x="124" y="376" width="40" height="20" as="geometry" />
          </mxCell>
        </object>
        <mxCell id="aQw6tkA5pOAqd_6tdOvo-91" value="&lt;font style=&quot;font-size: 10px;&quot;&gt;&lt;b style=&quot;&quot;&gt;swp3&lt;/b&gt;&lt;/font&gt;" style="text;html=1;align=center;verticalAlign=middle;resizable=0;points=[];autosize=1;strokeColor=none;fillColor=none;labelBorderColor=none;labelBackgroundColor=none;" vertex="1" parent="1">
          <mxGeometry x="119" y="371" width="50" height="30" as="geometry" />
        </mxCell>
        <object label="" id="aQw6tkA5pOAqd_6tdOvo-92">
          <mxCell style="verticalLabelPosition=bottom;verticalAlign=top;html=1;shape=mxgraph.basic.rect;fillColor2=none;strokeWidth=1;size=20;indent=5;rounded=0;shadow=0;glass=0;sketch=0;fillStyle=auto;fillColor=#FF8000;strokeColor=#d79b00;" vertex="1" parent="1">
            <mxGeometry x="83" y="376" width="40" height="20" as="geometry" />
          </mxCell>
        </object>
        <mxCell id="aQw6tkA5pOAqd_6tdOvo-93" value="&lt;font style=&quot;font-size: 10px;&quot;&gt;&lt;b style=&quot;&quot;&gt;swp2&lt;/b&gt;&lt;/font&gt;" style="text;html=1;align=center;verticalAlign=middle;resizable=0;points=[];autosize=1;strokeColor=none;fillColor=none;labelBorderColor=none;labelBackgroundColor=none;" vertex="1" parent="1">
          <mxGeometry x="78" y="371" width="50" height="30" as="geometry" />
        </mxCell>
        <object label="" id="aQw6tkA5pOAqd_6tdOvo-94">
          <mxCell style="verticalLabelPosition=bottom;verticalAlign=top;html=1;shape=mxgraph.basic.rect;fillColor2=none;strokeWidth=1;size=20;indent=5;rounded=0;shadow=0;glass=0;sketch=0;fillStyle=auto;fillColor=#FF8000;strokeColor=#d79b00;" vertex="1" parent="1">
            <mxGeometry x="42" y="376" width="40" height="20" as="geometry" />
          </mxCell>
        </object>
        <mxCell id="aQw6tkA5pOAqd_6tdOvo-95" value="&lt;font style=&quot;font-size: 10px;&quot;&gt;&lt;b style=&quot;&quot;&gt;swp1&lt;/b&gt;&lt;/font&gt;" style="text;html=1;align=center;verticalAlign=middle;resizable=0;points=[];autosize=1;strokeColor=none;fillColor=none;labelBorderColor=none;labelBackgroundColor=none;" vertex="1" parent="1">
          <mxGeometry x="37" y="371.75" width="50" height="30" as="geometry" />
        </mxCell>
        <object label="" id="aQw6tkA5pOAqd_6tdOvo-96">
          <mxCell style="verticalLabelPosition=bottom;verticalAlign=top;html=1;shape=mxgraph.basic.rect;fillColor2=none;strokeWidth=1;size=20;indent=5;rounded=0;shadow=0;glass=0;sketch=0;fillStyle=auto;fillColor=#FF8000;strokeColor=#d79b00;" vertex="1" parent="1">
            <mxGeometry x="42" y="444" width="20" height="40" as="geometry" />
          </mxCell>
        </object>
        <mxCell id="aQw6tkA5pOAqd_6tdOvo-97" value="&lt;font style=&quot;font-size: 10px;&quot;&gt;&lt;b style=&quot;&quot;&gt;swp9&lt;/b&gt;&lt;/font&gt;" style="text;html=1;align=center;verticalAlign=middle;resizable=0;points=[];autosize=1;strokeColor=none;fillColor=none;labelBorderColor=none;labelBackgroundColor=none;rotation=270;" vertex="1" parent="1">
          <mxGeometry x="27" y="450" width="50" height="30" as="geometry" />
        </mxCell>
        <object label="" id="aQw6tkA5pOAqd_6tdOvo-98">
          <mxCell style="verticalLabelPosition=bottom;verticalAlign=top;html=1;shape=mxgraph.basic.rect;fillColor2=none;strokeWidth=1;size=20;indent=5;rounded=0;shadow=0;glass=0;sketch=0;fillStyle=auto;fillColor=#FF8000;strokeColor=#d79b00;" vertex="1" parent="1">
            <mxGeometry x="63" y="444" width="20" height="40" as="geometry" />
          </mxCell>
        </object>
        <mxCell id="aQw6tkA5pOAqd_6tdOvo-99" value="&lt;font style=&quot;font-size: 10px;&quot;&gt;&lt;b style=&quot;&quot;&gt;swp8&lt;/b&gt;&lt;/font&gt;" style="text;html=1;align=center;verticalAlign=middle;resizable=0;points=[];autosize=1;strokeColor=none;fillColor=none;labelBorderColor=none;labelBackgroundColor=none;rotation=270;" vertex="1" parent="1">
          <mxGeometry x="48" y="450" width="50" height="30" as="geometry" />
        </mxCell>
        <object label="" id="aQw6tkA5pOAqd_6tdOvo-100">
          <mxCell style="verticalLabelPosition=bottom;verticalAlign=top;html=1;shape=mxgraph.basic.rect;fillColor2=none;strokeWidth=1;size=20;indent=5;rounded=0;shadow=0;glass=0;sketch=0;fillStyle=auto;fillColor=#FF8000;strokeColor=#d79b00;" vertex="1" parent="1">
            <mxGeometry x="84" y="444" width="20" height="40" as="geometry" />
          </mxCell>
        </object>
        <mxCell id="aQw6tkA5pOAqd_6tdOvo-101" value="&lt;font style=&quot;font-size: 10px;&quot;&gt;&lt;b style=&quot;&quot;&gt;swp7&lt;/b&gt;&lt;/font&gt;" style="text;html=1;align=center;verticalAlign=middle;resizable=0;points=[];autosize=1;strokeColor=none;fillColor=none;labelBorderColor=none;labelBackgroundColor=none;rotation=270;" vertex="1" parent="1">
          <mxGeometry x="69" y="450" width="50" height="30" as="geometry" />
        </mxCell>
        <mxCell id="aQw6tkA5pOAqd_6tdOvo-121" value="&lt;b&gt;&amp;nbsp; &amp;nbsp;leaf02&lt;/b&gt;" style="shape=ext;double=1;rounded=0;whiteSpace=wrap;html=1;fillStyle=auto;strokeWidth=3;strokeColor=#009900;glass=0;shadow=0;sketch=0;align=left;" vertex="1" parent="1">
          <mxGeometry x="319" y="400.5" width="160" height="40" as="geometry" />
        </mxCell>
        <mxCell id="aQw6tkA5pOAqd_6tdOvo-122" value="" style="verticalLabelPosition=bottom;verticalAlign=top;html=1;shape=mxgraph.basic.rect;fillColor2=none;strokeWidth=1;size=20;indent=5;rounded=0;shadow=0;glass=0;sketch=0;fillStyle=auto;fillColor=#000000;" vertex="1" parent="1">
          <mxGeometry x="429" y="415.5" width="5" height="10" as="geometry" />
        </mxCell>
        <mxCell id="aQw6tkA5pOAqd_6tdOvo-123" value="" style="verticalLabelPosition=bottom;verticalAlign=top;html=1;shape=mxgraph.basic.rect;fillColor2=none;strokeWidth=1;size=20;indent=5;rounded=0;shadow=0;glass=0;sketch=0;fillStyle=auto;fillColor=#000000;" vertex="1" parent="1">
          <mxGeometry x="439" y="415.5" width="5" height="10" as="geometry" />
        </mxCell>
        <mxCell id="aQw6tkA5pOAqd_6tdOvo-124" value="" style="verticalLabelPosition=bottom;verticalAlign=top;html=1;shape=mxgraph.basic.rect;fillColor2=none;strokeWidth=1;size=20;indent=5;rounded=0;shadow=0;glass=0;sketch=0;fillStyle=auto;fillColor=#000000;" vertex="1" parent="1">
          <mxGeometry x="449" y="415.5" width="5" height="10" as="geometry" />
        </mxCell>
        <mxCell id="aQw6tkA5pOAqd_6tdOvo-125" value="" style="verticalLabelPosition=bottom;verticalAlign=top;html=1;shape=mxgraph.basic.rect;fillColor2=none;strokeWidth=1;size=20;indent=5;rounded=0;shadow=0;glass=0;sketch=0;fillStyle=solid;fillColor=#0D0D0D;" vertex="1" parent="1">
          <mxGeometry x="459" y="415.5" width="5" height="10" as="geometry" />
        </mxCell>
        <object label="" id="aQw6tkA5pOAqd_6tdOvo-126">
          <mxCell style="verticalLabelPosition=bottom;verticalAlign=top;html=1;shape=mxgraph.basic.rect;fillColor2=none;strokeWidth=1;size=20;indent=5;rounded=0;shadow=0;glass=0;sketch=0;fillStyle=auto;fillColor=#FF8000;strokeColor=#d79b00;" vertex="1" parent="1">
            <mxGeometry x="439" y="375.5" width="40" height="20" as="geometry" />
          </mxCell>
        </object>
        <mxCell id="aQw6tkA5pOAqd_6tdOvo-127" value="&lt;font style=&quot;font-size: 10px;&quot;&gt;&lt;b style=&quot;&quot;&gt;swp4&lt;/b&gt;&lt;/font&gt;" style="text;html=1;align=center;verticalAlign=middle;resizable=0;points=[];autosize=1;strokeColor=none;fillColor=none;labelBorderColor=none;labelBackgroundColor=none;" vertex="1" parent="1">
          <mxGeometry x="434" y="370.5" width="50" height="30" as="geometry" />
        </mxCell>
        <object label="" id="aQw6tkA5pOAqd_6tdOvo-128">
          <mxCell style="verticalLabelPosition=bottom;verticalAlign=top;html=1;shape=mxgraph.basic.rect;fillColor2=none;strokeWidth=1;size=20;indent=5;rounded=0;shadow=0;glass=0;sketch=0;fillStyle=auto;fillColor=#FF8000;strokeColor=#d79b00;" vertex="1" parent="1">
            <mxGeometry x="401" y="375.5" width="40" height="20" as="geometry" />
          </mxCell>
        </object>
        <mxCell id="aQw6tkA5pOAqd_6tdOvo-129" value="&lt;font style=&quot;font-size: 10px;&quot;&gt;&lt;b style=&quot;&quot;&gt;swp3&lt;/b&gt;&lt;/font&gt;" style="text;html=1;align=center;verticalAlign=middle;resizable=0;points=[];autosize=1;strokeColor=none;fillColor=none;labelBorderColor=none;labelBackgroundColor=none;" vertex="1" parent="1">
          <mxGeometry x="396" y="370.5" width="50" height="30" as="geometry" />
        </mxCell>
        <object label="" id="aQw6tkA5pOAqd_6tdOvo-130">
          <mxCell style="verticalLabelPosition=bottom;verticalAlign=top;html=1;shape=mxgraph.basic.rect;fillColor2=none;strokeWidth=1;size=20;indent=5;rounded=0;shadow=0;glass=0;sketch=0;fillStyle=auto;fillColor=#FF8000;strokeColor=#d79b00;" vertex="1" parent="1">
            <mxGeometry x="360" y="375.5" width="40" height="20" as="geometry" />
          </mxCell>
        </object>
        <mxCell id="aQw6tkA5pOAqd_6tdOvo-131" value="&lt;font style=&quot;font-size: 10px;&quot;&gt;&lt;b style=&quot;&quot;&gt;swp2&lt;/b&gt;&lt;/font&gt;" style="text;html=1;align=center;verticalAlign=middle;resizable=0;points=[];autosize=1;strokeColor=none;fillColor=none;labelBorderColor=none;labelBackgroundColor=none;" vertex="1" parent="1">
          <mxGeometry x="355" y="370.5" width="50" height="30" as="geometry" />
        </mxCell>
        <object label="" id="aQw6tkA5pOAqd_6tdOvo-132">
          <mxCell style="verticalLabelPosition=bottom;verticalAlign=top;html=1;shape=mxgraph.basic.rect;fillColor2=none;strokeWidth=1;size=20;indent=5;rounded=0;shadow=0;glass=0;sketch=0;fillStyle=auto;fillColor=#FF8000;strokeColor=#d79b00;" vertex="1" parent="1">
            <mxGeometry x="319" y="375.5" width="40" height="20" as="geometry" />
          </mxCell>
        </object>
        <mxCell id="aQw6tkA5pOAqd_6tdOvo-133" value="&lt;font style=&quot;font-size: 10px;&quot;&gt;&lt;b style=&quot;&quot;&gt;swp1&lt;/b&gt;&lt;/font&gt;" style="text;html=1;align=center;verticalAlign=middle;resizable=0;points=[];autosize=1;strokeColor=none;fillColor=none;labelBorderColor=none;labelBackgroundColor=none;" vertex="1" parent="1">
          <mxGeometry x="314" y="370.5" width="50" height="30" as="geometry" />
        </mxCell>
        <object label="" id="aQw6tkA5pOAqd_6tdOvo-134">
          <mxCell style="verticalLabelPosition=bottom;verticalAlign=top;html=1;shape=mxgraph.basic.rect;fillColor2=none;strokeWidth=1;size=20;indent=5;rounded=0;shadow=0;glass=0;sketch=0;fillStyle=auto;fillColor=#FF8000;strokeColor=#d79b00;" vertex="1" parent="1">
            <mxGeometry x="415" y="443.5" width="20" height="40" as="geometry" />
          </mxCell>
        </object>
        <mxCell id="aQw6tkA5pOAqd_6tdOvo-135" value="&lt;font style=&quot;font-size: 10px;&quot;&gt;&lt;b style=&quot;&quot;&gt;swp7&lt;/b&gt;&lt;/font&gt;" style="text;html=1;align=center;verticalAlign=middle;resizable=0;points=[];autosize=1;strokeColor=none;fillColor=none;labelBorderColor=none;labelBackgroundColor=none;rotation=270;" vertex="1" parent="1">
          <mxGeometry x="400" y="449.5" width="50" height="30" as="geometry" />
        </mxCell>
        <object label="" id="aQw6tkA5pOAqd_6tdOvo-136">
          <mxCell style="verticalLabelPosition=bottom;verticalAlign=top;html=1;shape=mxgraph.basic.rect;fillColor2=none;strokeWidth=1;size=20;indent=5;rounded=0;shadow=0;glass=0;sketch=0;fillStyle=auto;fillColor=#FF8000;strokeColor=#d79b00;" vertex="1" parent="1">
            <mxGeometry x="436" y="443.5" width="20" height="40" as="geometry" />
          </mxCell>
        </object>
        <mxCell id="aQw6tkA5pOAqd_6tdOvo-137" value="&lt;font style=&quot;font-size: 10px;&quot;&gt;&lt;b style=&quot;&quot;&gt;swp8&lt;/b&gt;&lt;/font&gt;" style="text;html=1;align=center;verticalAlign=middle;resizable=0;points=[];autosize=1;strokeColor=none;fillColor=none;labelBorderColor=none;labelBackgroundColor=none;rotation=270;" vertex="1" parent="1">
          <mxGeometry x="421" y="449.5" width="50" height="30" as="geometry" />
        </mxCell>
        <object label="" id="aQw6tkA5pOAqd_6tdOvo-138">
          <mxCell style="verticalLabelPosition=bottom;verticalAlign=top;html=1;shape=mxgraph.basic.rect;fillColor2=none;strokeWidth=1;size=20;indent=5;rounded=0;shadow=0;glass=0;sketch=0;fillStyle=auto;fillColor=#FF8000;strokeColor=#d79b00;" vertex="1" parent="1">
            <mxGeometry x="457" y="443.5" width="20" height="40" as="geometry" />
          </mxCell>
        </object>
        <mxCell id="aQw6tkA5pOAqd_6tdOvo-139" value="&lt;font style=&quot;font-size: 10px;&quot;&gt;&lt;b style=&quot;&quot;&gt;swp9&lt;/b&gt;&lt;/font&gt;" style="text;html=1;align=center;verticalAlign=middle;resizable=0;points=[];autosize=1;strokeColor=none;fillColor=none;labelBorderColor=none;labelBackgroundColor=none;rotation=270;" vertex="1" parent="1">
          <mxGeometry x="442" y="449.5" width="50" height="30" as="geometry" />
        </mxCell>
        <object label="" id="aQw6tkA5pOAqd_6tdOvo-141">
          <mxCell style="verticalLabelPosition=bottom;verticalAlign=top;html=1;shape=mxgraph.basic.rect;fillColor2=none;strokeWidth=1;size=20;indent=5;rounded=0;shadow=0;glass=0;sketch=0;fillStyle=auto;fillColor=#FF8000;strokeColor=#d79b00;" vertex="1" parent="1">
            <mxGeometry x="239" y="401" width="40" height="20" as="geometry" />
          </mxCell>
        </object>
        <mxCell id="aQw6tkA5pOAqd_6tdOvo-142" value="&lt;font style=&quot;font-size: 10px;&quot;&gt;&lt;b style=&quot;&quot;&gt;swp5&lt;/b&gt;&lt;/font&gt;" style="text;html=1;align=center;verticalAlign=middle;resizable=0;points=[];autosize=1;strokeColor=none;fillColor=none;labelBorderColor=none;labelBackgroundColor=none;" vertex="1" parent="1">
          <mxGeometry x="234" y="396" width="50" height="30" as="geometry" />
        </mxCell>
        <object label="" id="aQw6tkA5pOAqd_6tdOvo-143">
          <mxCell style="verticalLabelPosition=bottom;verticalAlign=top;html=1;shape=mxgraph.basic.rect;fillColor2=none;strokeWidth=1;size=20;indent=5;rounded=0;shadow=0;glass=0;sketch=0;fillStyle=auto;fillColor=#FF8000;strokeColor=#d79b00;" vertex="1" parent="1">
            <mxGeometry x="239" y="422" width="40" height="20" as="geometry" />
          </mxCell>
        </object>
        <mxCell id="aQw6tkA5pOAqd_6tdOvo-144" value="&lt;font style=&quot;font-size: 10px;&quot;&gt;&lt;b style=&quot;&quot;&gt;swp6&lt;/b&gt;&lt;/font&gt;" style="text;html=1;align=center;verticalAlign=middle;resizable=0;points=[];autosize=1;strokeColor=none;fillColor=none;labelBorderColor=none;labelBackgroundColor=none;" vertex="1" parent="1">
          <mxGeometry x="234" y="417" width="50" height="30" as="geometry" />
        </mxCell>
        <mxCell id="aQw6tkA5pOAqd_6tdOvo-145" value="&lt;b&gt;&amp;nbsp; &amp;nbsp;leaf03&lt;/b&gt;" style="shape=ext;double=1;rounded=0;whiteSpace=wrap;html=1;fillStyle=auto;strokeWidth=3;strokeColor=#009900;glass=0;shadow=0;sketch=0;align=left;" vertex="1" parent="1">
          <mxGeometry x="525" y="401.75" width="160" height="40" as="geometry" />
        </mxCell>
        <mxCell id="aQw6tkA5pOAqd_6tdOvo-146" value="" style="verticalLabelPosition=bottom;verticalAlign=top;html=1;shape=mxgraph.basic.rect;fillColor2=none;strokeWidth=1;size=20;indent=5;rounded=0;shadow=0;glass=0;sketch=0;fillStyle=auto;fillColor=#000000;" vertex="1" parent="1">
          <mxGeometry x="635" y="416.75" width="5" height="10" as="geometry" />
        </mxCell>
        <mxCell id="aQw6tkA5pOAqd_6tdOvo-147" value="" style="verticalLabelPosition=bottom;verticalAlign=top;html=1;shape=mxgraph.basic.rect;fillColor2=none;strokeWidth=1;size=20;indent=5;rounded=0;shadow=0;glass=0;sketch=0;fillStyle=auto;fillColor=#000000;" vertex="1" parent="1">
          <mxGeometry x="645" y="416.75" width="5" height="10" as="geometry" />
        </mxCell>
        <mxCell id="aQw6tkA5pOAqd_6tdOvo-148" value="" style="verticalLabelPosition=bottom;verticalAlign=top;html=1;shape=mxgraph.basic.rect;fillColor2=none;strokeWidth=1;size=20;indent=5;rounded=0;shadow=0;glass=0;sketch=0;fillStyle=auto;fillColor=#000000;" vertex="1" parent="1">
          <mxGeometry x="655" y="416.75" width="5" height="10" as="geometry" />
        </mxCell>
        <mxCell id="aQw6tkA5pOAqd_6tdOvo-149" value="" style="verticalLabelPosition=bottom;verticalAlign=top;html=1;shape=mxgraph.basic.rect;fillColor2=none;strokeWidth=1;size=20;indent=5;rounded=0;shadow=0;glass=0;sketch=0;fillStyle=solid;fillColor=#0D0D0D;" vertex="1" parent="1">
          <mxGeometry x="665" y="416.75" width="5" height="10" as="geometry" />
        </mxCell>
        <object label="" id="aQw6tkA5pOAqd_6tdOvo-150">
          <mxCell style="verticalLabelPosition=bottom;verticalAlign=top;html=1;shape=mxgraph.basic.rect;fillColor2=none;strokeWidth=1;size=20;indent=5;rounded=0;shadow=0;glass=0;sketch=0;fillStyle=auto;fillColor=#FF8000;strokeColor=#d79b00;" vertex="1" parent="1">
            <mxGeometry x="645" y="376.75" width="40" height="20" as="geometry" />
          </mxCell>
        </object>
        <mxCell id="aQw6tkA5pOAqd_6tdOvo-151" value="&lt;font style=&quot;font-size: 10px;&quot;&gt;&lt;b style=&quot;&quot;&gt;swp4&lt;/b&gt;&lt;/font&gt;" style="text;html=1;align=center;verticalAlign=middle;resizable=0;points=[];autosize=1;strokeColor=none;fillColor=none;labelBorderColor=none;labelBackgroundColor=none;" vertex="1" parent="1">
          <mxGeometry x="640" y="371.75" width="50" height="30" as="geometry" />
        </mxCell>
        <object label="" id="aQw6tkA5pOAqd_6tdOvo-152">
          <mxCell style="verticalLabelPosition=bottom;verticalAlign=top;html=1;shape=mxgraph.basic.rect;fillColor2=none;strokeWidth=1;size=20;indent=5;rounded=0;shadow=0;glass=0;sketch=0;fillStyle=auto;fillColor=#FF8000;strokeColor=#d79b00;" vertex="1" parent="1">
            <mxGeometry x="607" y="376.75" width="40" height="20" as="geometry" />
          </mxCell>
        </object>
        <mxCell id="aQw6tkA5pOAqd_6tdOvo-153" value="&lt;font style=&quot;font-size: 10px;&quot;&gt;&lt;b style=&quot;&quot;&gt;swp3&lt;/b&gt;&lt;/font&gt;" style="text;html=1;align=center;verticalAlign=middle;resizable=0;points=[];autosize=1;strokeColor=none;fillColor=none;labelBorderColor=none;labelBackgroundColor=none;" vertex="1" parent="1">
          <mxGeometry x="602" y="371.75" width="50" height="30" as="geometry" />
        </mxCell>
        <object label="" id="aQw6tkA5pOAqd_6tdOvo-154">
          <mxCell style="verticalLabelPosition=bottom;verticalAlign=top;html=1;shape=mxgraph.basic.rect;fillColor2=none;strokeWidth=1;size=20;indent=5;rounded=0;shadow=0;glass=0;sketch=0;fillStyle=auto;fillColor=#FF8000;strokeColor=#d79b00;" vertex="1" parent="1">
            <mxGeometry x="566" y="376.75" width="40" height="20" as="geometry" />
          </mxCell>
        </object>
        <mxCell id="aQw6tkA5pOAqd_6tdOvo-155" value="&lt;font style=&quot;font-size: 10px;&quot;&gt;&lt;b style=&quot;&quot;&gt;swp2&lt;/b&gt;&lt;/font&gt;" style="text;html=1;align=center;verticalAlign=middle;resizable=0;points=[];autosize=1;strokeColor=none;fillColor=none;labelBorderColor=none;labelBackgroundColor=none;" vertex="1" parent="1">
          <mxGeometry x="561" y="371.75" width="50" height="30" as="geometry" />
        </mxCell>
        <object label="" id="aQw6tkA5pOAqd_6tdOvo-156">
          <mxCell style="verticalLabelPosition=bottom;verticalAlign=top;html=1;shape=mxgraph.basic.rect;fillColor2=none;strokeWidth=1;size=20;indent=5;rounded=0;shadow=0;glass=0;sketch=0;fillStyle=auto;fillColor=#FF8000;strokeColor=#d79b00;" vertex="1" parent="1">
            <mxGeometry x="525" y="376.75" width="40" height="20" as="geometry" />
          </mxCell>
        </object>
        <mxCell id="aQw6tkA5pOAqd_6tdOvo-157" value="&lt;font style=&quot;font-size: 10px;&quot;&gt;&lt;b style=&quot;&quot;&gt;swp1&lt;/b&gt;&lt;/font&gt;" style="text;html=1;align=center;verticalAlign=middle;resizable=0;points=[];autosize=1;strokeColor=none;fillColor=none;labelBorderColor=none;labelBackgroundColor=none;" vertex="1" parent="1">
          <mxGeometry x="520" y="371.75" width="50" height="30" as="geometry" />
        </mxCell>
        <object label="" id="aQw6tkA5pOAqd_6tdOvo-158">
          <mxCell style="verticalLabelPosition=bottom;verticalAlign=top;html=1;shape=mxgraph.basic.rect;fillColor2=none;strokeWidth=1;size=20;indent=5;rounded=0;shadow=0;glass=0;sketch=0;fillStyle=auto;fillColor=#FF8000;strokeColor=#d79b00;" vertex="1" parent="1">
            <mxGeometry x="525" y="444.75" width="20" height="40" as="geometry" />
          </mxCell>
        </object>
        <mxCell id="aQw6tkA5pOAqd_6tdOvo-159" value="&lt;font style=&quot;font-size: 10px;&quot;&gt;&lt;b style=&quot;&quot;&gt;swp9&lt;/b&gt;&lt;/font&gt;" style="text;html=1;align=center;verticalAlign=middle;resizable=0;points=[];autosize=1;strokeColor=none;fillColor=none;labelBorderColor=none;labelBackgroundColor=none;rotation=270;" vertex="1" parent="1">
          <mxGeometry x="510" y="450.75" width="50" height="30" as="geometry" />
        </mxCell>
        <object label="" id="aQw6tkA5pOAqd_6tdOvo-160">
          <mxCell style="verticalLabelPosition=bottom;verticalAlign=top;html=1;shape=mxgraph.basic.rect;fillColor2=none;strokeWidth=1;size=20;indent=5;rounded=0;shadow=0;glass=0;sketch=0;fillStyle=auto;fillColor=#FF8000;strokeColor=#d79b00;" vertex="1" parent="1">
            <mxGeometry x="546" y="444.75" width="20" height="40" as="geometry" />
          </mxCell>
        </object>
        <mxCell id="aQw6tkA5pOAqd_6tdOvo-161" value="&lt;font style=&quot;font-size: 10px;&quot;&gt;&lt;b style=&quot;&quot;&gt;swp8&lt;/b&gt;&lt;/font&gt;" style="text;html=1;align=center;verticalAlign=middle;resizable=0;points=[];autosize=1;strokeColor=none;fillColor=none;labelBorderColor=none;labelBackgroundColor=none;rotation=270;" vertex="1" parent="1">
          <mxGeometry x="531" y="450.75" width="50" height="30" as="geometry" />
        </mxCell>
        <object label="" id="aQw6tkA5pOAqd_6tdOvo-162">
          <mxCell style="verticalLabelPosition=bottom;verticalAlign=top;html=1;shape=mxgraph.basic.rect;fillColor2=none;strokeWidth=1;size=20;indent=5;rounded=0;shadow=0;glass=0;sketch=0;fillStyle=auto;fillColor=#FF8000;strokeColor=#d79b00;" vertex="1" parent="1">
            <mxGeometry x="567" y="444.75" width="20" height="40" as="geometry" />
          </mxCell>
        </object>
        <mxCell id="aQw6tkA5pOAqd_6tdOvo-163" value="&lt;font style=&quot;font-size: 10px;&quot;&gt;&lt;b style=&quot;&quot;&gt;swp7&lt;/b&gt;&lt;/font&gt;" style="text;html=1;align=center;verticalAlign=middle;resizable=0;points=[];autosize=1;strokeColor=none;fillColor=none;labelBorderColor=none;labelBackgroundColor=none;rotation=270;" vertex="1" parent="1">
          <mxGeometry x="552" y="450.75" width="50" height="30" as="geometry" />
        </mxCell>
        <mxCell id="aQw6tkA5pOAqd_6tdOvo-164" value="&lt;b&gt;&amp;nbsp; &amp;nbsp;leaf04&lt;/b&gt;" style="shape=ext;double=1;rounded=0;whiteSpace=wrap;html=1;fillStyle=auto;strokeWidth=3;strokeColor=#009900;glass=0;shadow=0;sketch=0;align=left;" vertex="1" parent="1">
          <mxGeometry x="802" y="401.25" width="160" height="40" as="geometry" />
        </mxCell>
        <mxCell id="aQw6tkA5pOAqd_6tdOvo-165" value="" style="verticalLabelPosition=bottom;verticalAlign=top;html=1;shape=mxgraph.basic.rect;fillColor2=none;strokeWidth=1;size=20;indent=5;rounded=0;shadow=0;glass=0;sketch=0;fillStyle=auto;fillColor=#000000;" vertex="1" parent="1">
          <mxGeometry x="912" y="416.25" width="5" height="10" as="geometry" />
        </mxCell>
        <mxCell id="aQw6tkA5pOAqd_6tdOvo-166" value="" style="verticalLabelPosition=bottom;verticalAlign=top;html=1;shape=mxgraph.basic.rect;fillColor2=none;strokeWidth=1;size=20;indent=5;rounded=0;shadow=0;glass=0;sketch=0;fillStyle=auto;fillColor=#000000;" vertex="1" parent="1">
          <mxGeometry x="922" y="416.25" width="5" height="10" as="geometry" />
        </mxCell>
        <mxCell id="aQw6tkA5pOAqd_6tdOvo-167" value="" style="verticalLabelPosition=bottom;verticalAlign=top;html=1;shape=mxgraph.basic.rect;fillColor2=none;strokeWidth=1;size=20;indent=5;rounded=0;shadow=0;glass=0;sketch=0;fillStyle=auto;fillColor=#000000;" vertex="1" parent="1">
          <mxGeometry x="932" y="416.25" width="5" height="10" as="geometry" />
        </mxCell>
        <mxCell id="aQw6tkA5pOAqd_6tdOvo-168" value="" style="verticalLabelPosition=bottom;verticalAlign=top;html=1;shape=mxgraph.basic.rect;fillColor2=none;strokeWidth=1;size=20;indent=5;rounded=0;shadow=0;glass=0;sketch=0;fillStyle=solid;fillColor=#0D0D0D;" vertex="1" parent="1">
          <mxGeometry x="942" y="416.25" width="5" height="10" as="geometry" />
        </mxCell>
        <object label="" id="aQw6tkA5pOAqd_6tdOvo-169">
          <mxCell style="verticalLabelPosition=bottom;verticalAlign=top;html=1;shape=mxgraph.basic.rect;fillColor2=none;strokeWidth=1;size=20;indent=5;rounded=0;shadow=0;glass=0;sketch=0;fillStyle=auto;fillColor=#FF8000;strokeColor=#d79b00;" vertex="1" parent="1">
            <mxGeometry x="922" y="376.25" width="40" height="20" as="geometry" />
          </mxCell>
        </object>
        <mxCell id="aQw6tkA5pOAqd_6tdOvo-170" value="&lt;font style=&quot;font-size: 10px;&quot;&gt;&lt;b style=&quot;&quot;&gt;swp4&lt;/b&gt;&lt;/font&gt;" style="text;html=1;align=center;verticalAlign=middle;resizable=0;points=[];autosize=1;strokeColor=none;fillColor=none;labelBorderColor=none;labelBackgroundColor=none;" vertex="1" parent="1">
          <mxGeometry x="917" y="371.25" width="50" height="30" as="geometry" />
        </mxCell>
        <object label="" id="aQw6tkA5pOAqd_6tdOvo-171">
          <mxCell style="verticalLabelPosition=bottom;verticalAlign=top;html=1;shape=mxgraph.basic.rect;fillColor2=none;strokeWidth=1;size=20;indent=5;rounded=0;shadow=0;glass=0;sketch=0;fillStyle=auto;fillColor=#FF8000;strokeColor=#d79b00;" vertex="1" parent="1">
            <mxGeometry x="884" y="376.25" width="40" height="20" as="geometry" />
          </mxCell>
        </object>
        <mxCell id="aQw6tkA5pOAqd_6tdOvo-172" value="&lt;font style=&quot;font-size: 10px;&quot;&gt;&lt;b style=&quot;&quot;&gt;swp3&lt;/b&gt;&lt;/font&gt;" style="text;html=1;align=center;verticalAlign=middle;resizable=0;points=[];autosize=1;strokeColor=none;fillColor=none;labelBorderColor=none;labelBackgroundColor=none;" vertex="1" parent="1">
          <mxGeometry x="879" y="371.25" width="50" height="30" as="geometry" />
        </mxCell>
        <object label="" id="aQw6tkA5pOAqd_6tdOvo-173">
          <mxCell style="verticalLabelPosition=bottom;verticalAlign=top;html=1;shape=mxgraph.basic.rect;fillColor2=none;strokeWidth=1;size=20;indent=5;rounded=0;shadow=0;glass=0;sketch=0;fillStyle=auto;fillColor=#FF8000;strokeColor=#d79b00;" vertex="1" parent="1">
            <mxGeometry x="843" y="376.25" width="40" height="20" as="geometry" />
          </mxCell>
        </object>
        <mxCell id="aQw6tkA5pOAqd_6tdOvo-174" value="&lt;font style=&quot;font-size: 10px;&quot;&gt;&lt;b style=&quot;&quot;&gt;swp2&lt;/b&gt;&lt;/font&gt;" style="text;html=1;align=center;verticalAlign=middle;resizable=0;points=[];autosize=1;strokeColor=none;fillColor=none;labelBorderColor=none;labelBackgroundColor=none;" vertex="1" parent="1">
          <mxGeometry x="838" y="371.25" width="50" height="30" as="geometry" />
        </mxCell>
        <object label="" id="aQw6tkA5pOAqd_6tdOvo-175">
          <mxCell style="verticalLabelPosition=bottom;verticalAlign=top;html=1;shape=mxgraph.basic.rect;fillColor2=none;strokeWidth=1;size=20;indent=5;rounded=0;shadow=0;glass=0;sketch=0;fillStyle=auto;fillColor=#FF8000;strokeColor=#d79b00;" vertex="1" parent="1">
            <mxGeometry x="802" y="376.25" width="40" height="20" as="geometry" />
          </mxCell>
        </object>
        <mxCell id="aQw6tkA5pOAqd_6tdOvo-176" value="&lt;font style=&quot;font-size: 10px;&quot;&gt;&lt;b style=&quot;&quot;&gt;swp1&lt;/b&gt;&lt;/font&gt;" style="text;html=1;align=center;verticalAlign=middle;resizable=0;points=[];autosize=1;strokeColor=none;fillColor=none;labelBorderColor=none;labelBackgroundColor=none;" vertex="1" parent="1">
          <mxGeometry x="797" y="371.25" width="50" height="30" as="geometry" />
        </mxCell>
        <object label="" id="aQw6tkA5pOAqd_6tdOvo-177">
          <mxCell style="verticalLabelPosition=bottom;verticalAlign=top;html=1;shape=mxgraph.basic.rect;fillColor2=none;strokeWidth=1;size=20;indent=5;rounded=0;shadow=0;glass=0;sketch=0;fillStyle=auto;fillColor=#FF8000;strokeColor=#d79b00;" vertex="1" parent="1">
            <mxGeometry x="898" y="444.25" width="20" height="40" as="geometry" />
          </mxCell>
        </object>
        <mxCell id="aQw6tkA5pOAqd_6tdOvo-178" value="&lt;font style=&quot;font-size: 10px;&quot;&gt;&lt;b style=&quot;&quot;&gt;swp7&lt;/b&gt;&lt;/font&gt;" style="text;html=1;align=center;verticalAlign=middle;resizable=0;points=[];autosize=1;strokeColor=none;fillColor=none;labelBorderColor=none;labelBackgroundColor=none;rotation=270;" vertex="1" parent="1">
          <mxGeometry x="883" y="450.25" width="50" height="30" as="geometry" />
        </mxCell>
        <object label="" id="aQw6tkA5pOAqd_6tdOvo-179">
          <mxCell style="verticalLabelPosition=bottom;verticalAlign=top;html=1;shape=mxgraph.basic.rect;fillColor2=none;strokeWidth=1;size=20;indent=5;rounded=0;shadow=0;glass=0;sketch=0;fillStyle=auto;fillColor=#FF8000;strokeColor=#d79b00;" vertex="1" parent="1">
            <mxGeometry x="919" y="444.25" width="20" height="40" as="geometry" />
          </mxCell>
        </object>
        <mxCell id="aQw6tkA5pOAqd_6tdOvo-180" value="&lt;font style=&quot;font-size: 10px;&quot;&gt;&lt;b style=&quot;&quot;&gt;swp8&lt;/b&gt;&lt;/font&gt;" style="text;html=1;align=center;verticalAlign=middle;resizable=0;points=[];autosize=1;strokeColor=none;fillColor=none;labelBorderColor=none;labelBackgroundColor=none;rotation=270;" vertex="1" parent="1">
          <mxGeometry x="904" y="450.25" width="50" height="30" as="geometry" />
        </mxCell>
        <object label="" id="aQw6tkA5pOAqd_6tdOvo-181">
          <mxCell style="verticalLabelPosition=bottom;verticalAlign=top;html=1;shape=mxgraph.basic.rect;fillColor2=none;strokeWidth=1;size=20;indent=5;rounded=0;shadow=0;glass=0;sketch=0;fillStyle=auto;fillColor=#FF8000;strokeColor=#d79b00;" vertex="1" parent="1">
            <mxGeometry x="940" y="444.25" width="20" height="40" as="geometry" />
          </mxCell>
        </object>
        <mxCell id="aQw6tkA5pOAqd_6tdOvo-182" value="&lt;font style=&quot;font-size: 10px;&quot;&gt;&lt;b style=&quot;&quot;&gt;swp9&lt;/b&gt;&lt;/font&gt;" style="text;html=1;align=center;verticalAlign=middle;resizable=0;points=[];autosize=1;strokeColor=none;fillColor=none;labelBorderColor=none;labelBackgroundColor=none;rotation=270;" vertex="1" parent="1">
          <mxGeometry x="925" y="450.25" width="50" height="30" as="geometry" />
        </mxCell>
        <object label="" id="aQw6tkA5pOAqd_6tdOvo-183">
          <mxCell style="verticalLabelPosition=bottom;verticalAlign=top;html=1;shape=mxgraph.basic.rect;fillColor2=none;strokeWidth=1;size=20;indent=5;rounded=0;shadow=0;glass=0;sketch=0;fillStyle=auto;fillColor=#FF8000;strokeColor=#d79b00;" vertex="1" parent="1">
            <mxGeometry x="722" y="401.75" width="40" height="20" as="geometry" />
          </mxCell>
        </object>
        <mxCell id="aQw6tkA5pOAqd_6tdOvo-184" value="&lt;font style=&quot;font-size: 10px;&quot;&gt;&lt;b style=&quot;&quot;&gt;swp5&lt;/b&gt;&lt;/font&gt;" style="text;html=1;align=center;verticalAlign=middle;resizable=0;points=[];autosize=1;strokeColor=none;fillColor=none;labelBorderColor=none;labelBackgroundColor=none;" vertex="1" parent="1">
          <mxGeometry x="717" y="396.75" width="50" height="30" as="geometry" />
        </mxCell>
        <object label="" id="aQw6tkA5pOAqd_6tdOvo-185">
          <mxCell style="verticalLabelPosition=bottom;verticalAlign=top;html=1;shape=mxgraph.basic.rect;fillColor2=none;strokeWidth=1;size=20;indent=5;rounded=0;shadow=0;glass=0;sketch=0;fillStyle=auto;fillColor=#FF8000;strokeColor=#d79b00;" vertex="1" parent="1">
            <mxGeometry x="722" y="422.75" width="40" height="20" as="geometry" />
          </mxCell>
        </object>
        <mxCell id="aQw6tkA5pOAqd_6tdOvo-186" value="&lt;font style=&quot;font-size: 10px;&quot;&gt;&lt;b style=&quot;&quot;&gt;swp6&lt;/b&gt;&lt;/font&gt;" style="text;html=1;align=center;verticalAlign=middle;resizable=0;points=[];autosize=1;strokeColor=none;fillColor=none;labelBorderColor=none;labelBackgroundColor=none;" vertex="1" parent="1">
          <mxGeometry x="717" y="417.75" width="50" height="30" as="geometry" />
        </mxCell>
        <mxCell id="aQw6tkA5pOAqd_6tdOvo-187" value="&lt;b&gt;&amp;nbsp; &amp;nbsp;leaf03&lt;/b&gt;" style="shape=ext;double=1;rounded=0;whiteSpace=wrap;html=1;fillStyle=auto;strokeWidth=3;strokeColor=#009900;glass=0;shadow=0;sketch=0;align=left;" vertex="1" parent="1">
          <mxGeometry x="1002.5" y="401.75" width="160" height="40" as="geometry" />
        </mxCell>
        <mxCell id="aQw6tkA5pOAqd_6tdOvo-188" value="" style="verticalLabelPosition=bottom;verticalAlign=top;html=1;shape=mxgraph.basic.rect;fillColor2=none;strokeWidth=1;size=20;indent=5;rounded=0;shadow=0;glass=0;sketch=0;fillStyle=auto;fillColor=#000000;" vertex="1" parent="1">
          <mxGeometry x="1112.5" y="416.75" width="5" height="10" as="geometry" />
        </mxCell>
        <mxCell id="aQw6tkA5pOAqd_6tdOvo-189" value="" style="verticalLabelPosition=bottom;verticalAlign=top;html=1;shape=mxgraph.basic.rect;fillColor2=none;strokeWidth=1;size=20;indent=5;rounded=0;shadow=0;glass=0;sketch=0;fillStyle=auto;fillColor=#000000;" vertex="1" parent="1">
          <mxGeometry x="1122.5" y="416.75" width="5" height="10" as="geometry" />
        </mxCell>
        <mxCell id="aQw6tkA5pOAqd_6tdOvo-190" value="" style="verticalLabelPosition=bottom;verticalAlign=top;html=1;shape=mxgraph.basic.rect;fillColor2=none;strokeWidth=1;size=20;indent=5;rounded=0;shadow=0;glass=0;sketch=0;fillStyle=auto;fillColor=#000000;" vertex="1" parent="1">
          <mxGeometry x="1132.5" y="416.75" width="5" height="10" as="geometry" />
        </mxCell>
        <mxCell id="aQw6tkA5pOAqd_6tdOvo-191" value="" style="verticalLabelPosition=bottom;verticalAlign=top;html=1;shape=mxgraph.basic.rect;fillColor2=none;strokeWidth=1;size=20;indent=5;rounded=0;shadow=0;glass=0;sketch=0;fillStyle=solid;fillColor=#0D0D0D;" vertex="1" parent="1">
          <mxGeometry x="1142.5" y="416.75" width="5" height="10" as="geometry" />
        </mxCell>
        <object label="" id="aQw6tkA5pOAqd_6tdOvo-192">
          <mxCell style="verticalLabelPosition=bottom;verticalAlign=top;html=1;shape=mxgraph.basic.rect;fillColor2=none;strokeWidth=1;size=20;indent=5;rounded=0;shadow=0;glass=0;sketch=0;fillStyle=auto;fillColor=#FF8000;strokeColor=#d79b00;" vertex="1" parent="1">
            <mxGeometry x="1122.5" y="376.75" width="40" height="20" as="geometry" />
          </mxCell>
        </object>
        <mxCell id="aQw6tkA5pOAqd_6tdOvo-193" value="&lt;font style=&quot;font-size: 10px;&quot;&gt;&lt;b style=&quot;&quot;&gt;swp4&lt;/b&gt;&lt;/font&gt;" style="text;html=1;align=center;verticalAlign=middle;resizable=0;points=[];autosize=1;strokeColor=none;fillColor=none;labelBorderColor=none;labelBackgroundColor=none;" vertex="1" parent="1">
          <mxGeometry x="1117.5" y="371.75" width="50" height="30" as="geometry" />
        </mxCell>
        <object label="" id="aQw6tkA5pOAqd_6tdOvo-194">
          <mxCell style="verticalLabelPosition=bottom;verticalAlign=top;html=1;shape=mxgraph.basic.rect;fillColor2=none;strokeWidth=1;size=20;indent=5;rounded=0;shadow=0;glass=0;sketch=0;fillStyle=auto;fillColor=#FF8000;strokeColor=#d79b00;" vertex="1" parent="1">
            <mxGeometry x="1084.5" y="376.75" width="40" height="20" as="geometry" />
          </mxCell>
        </object>
        <mxCell id="aQw6tkA5pOAqd_6tdOvo-195" value="&lt;font style=&quot;font-size: 10px;&quot;&gt;&lt;b style=&quot;&quot;&gt;swp3&lt;/b&gt;&lt;/font&gt;" style="text;html=1;align=center;verticalAlign=middle;resizable=0;points=[];autosize=1;strokeColor=none;fillColor=none;labelBorderColor=none;labelBackgroundColor=none;" vertex="1" parent="1">
          <mxGeometry x="1079.5" y="371.75" width="50" height="30" as="geometry" />
        </mxCell>
        <object label="" id="aQw6tkA5pOAqd_6tdOvo-196">
          <mxCell style="verticalLabelPosition=bottom;verticalAlign=top;html=1;shape=mxgraph.basic.rect;fillColor2=none;strokeWidth=1;size=20;indent=5;rounded=0;shadow=0;glass=0;sketch=0;fillStyle=auto;fillColor=#FF8000;strokeColor=#d79b00;" vertex="1" parent="1">
            <mxGeometry x="1043.5" y="376.75" width="40" height="20" as="geometry" />
          </mxCell>
        </object>
        <mxCell id="aQw6tkA5pOAqd_6tdOvo-197" value="&lt;font style=&quot;font-size: 10px;&quot;&gt;&lt;b style=&quot;&quot;&gt;swp2&lt;/b&gt;&lt;/font&gt;" style="text;html=1;align=center;verticalAlign=middle;resizable=0;points=[];autosize=1;strokeColor=none;fillColor=none;labelBorderColor=none;labelBackgroundColor=none;" vertex="1" parent="1">
          <mxGeometry x="1038.5" y="371.75" width="50" height="30" as="geometry" />
        </mxCell>
        <object label="" id="aQw6tkA5pOAqd_6tdOvo-198">
          <mxCell style="verticalLabelPosition=bottom;verticalAlign=top;html=1;shape=mxgraph.basic.rect;fillColor2=none;strokeWidth=1;size=20;indent=5;rounded=0;shadow=0;glass=0;sketch=0;fillStyle=auto;fillColor=#FF8000;strokeColor=#d79b00;" vertex="1" parent="1">
            <mxGeometry x="1002.5" y="376.75" width="40" height="20" as="geometry" />
          </mxCell>
        </object>
        <mxCell id="aQw6tkA5pOAqd_6tdOvo-199" value="&lt;font style=&quot;font-size: 10px;&quot;&gt;&lt;b style=&quot;&quot;&gt;swp1&lt;/b&gt;&lt;/font&gt;" style="text;html=1;align=center;verticalAlign=middle;resizable=0;points=[];autosize=1;strokeColor=none;fillColor=none;labelBorderColor=none;labelBackgroundColor=none;" vertex="1" parent="1">
          <mxGeometry x="997.5" y="371.75" width="50" height="30" as="geometry" />
        </mxCell>
        <object label="" id="aQw6tkA5pOAqd_6tdOvo-200">
          <mxCell style="verticalLabelPosition=bottom;verticalAlign=top;html=1;shape=mxgraph.basic.rect;fillColor2=none;strokeWidth=1;size=20;indent=5;rounded=0;shadow=0;glass=0;sketch=0;fillStyle=auto;fillColor=#FF8000;strokeColor=#d79b00;" vertex="1" parent="1">
            <mxGeometry x="1020.5" y="444.75" width="20" height="40" as="geometry" />
          </mxCell>
        </object>
        <mxCell id="aQw6tkA5pOAqd_6tdOvo-201" value="&lt;font style=&quot;font-size: 10px;&quot;&gt;&lt;b style=&quot;&quot;&gt;swp9&lt;/b&gt;&lt;/font&gt;" style="text;html=1;align=center;verticalAlign=middle;resizable=0;points=[];autosize=1;strokeColor=none;fillColor=none;labelBorderColor=none;labelBackgroundColor=none;rotation=270;" vertex="1" parent="1">
          <mxGeometry x="1005.5" y="450.75" width="50" height="30" as="geometry" />
        </mxCell>
        <object label="" id="aQw6tkA5pOAqd_6tdOvo-202">
          <mxCell style="verticalLabelPosition=bottom;verticalAlign=top;html=1;shape=mxgraph.basic.rect;fillColor2=none;strokeWidth=1;size=20;indent=5;rounded=0;shadow=0;glass=0;sketch=0;fillStyle=auto;fillColor=#FF8000;strokeColor=#d79b00;" vertex="1" parent="1">
            <mxGeometry x="1041.5" y="444.75" width="20" height="40" as="geometry" />
          </mxCell>
        </object>
        <mxCell id="aQw6tkA5pOAqd_6tdOvo-203" value="&lt;font style=&quot;font-size: 10px;&quot;&gt;&lt;b style=&quot;&quot;&gt;swp8&lt;/b&gt;&lt;/font&gt;" style="text;html=1;align=center;verticalAlign=middle;resizable=0;points=[];autosize=1;strokeColor=none;fillColor=none;labelBorderColor=none;labelBackgroundColor=none;rotation=270;" vertex="1" parent="1">
          <mxGeometry x="1026.5" y="450.75" width="50" height="30" as="geometry" />
        </mxCell>
        <object label="" id="aQw6tkA5pOAqd_6tdOvo-204">
          <mxCell style="verticalLabelPosition=bottom;verticalAlign=top;html=1;shape=mxgraph.basic.rect;fillColor2=none;strokeWidth=1;size=20;indent=5;rounded=0;shadow=0;glass=0;sketch=0;fillStyle=auto;fillColor=#FF8000;strokeColor=#d79b00;" vertex="1" parent="1">
            <mxGeometry x="1062.5" y="444.75" width="20" height="40" as="geometry" />
          </mxCell>
        </object>
        <mxCell id="aQw6tkA5pOAqd_6tdOvo-205" value="&lt;font style=&quot;font-size: 10px;&quot;&gt;&lt;b style=&quot;&quot;&gt;swp7&lt;/b&gt;&lt;/font&gt;" style="text;html=1;align=center;verticalAlign=middle;resizable=0;points=[];autosize=1;strokeColor=none;fillColor=none;labelBorderColor=none;labelBackgroundColor=none;rotation=270;" vertex="1" parent="1">
          <mxGeometry x="1047.5" y="450.75" width="50" height="30" as="geometry" />
        </mxCell>
        <mxCell id="aQw6tkA5pOAqd_6tdOvo-206" value="&lt;b&gt;&amp;nbsp; &amp;nbsp;leaf04&lt;/b&gt;" style="shape=ext;double=1;rounded=0;whiteSpace=wrap;html=1;fillStyle=auto;strokeWidth=3;strokeColor=#009900;glass=0;shadow=0;sketch=0;align=left;" vertex="1" parent="1">
          <mxGeometry x="1279.5" y="401.25" width="160" height="40" as="geometry" />
        </mxCell>
        <mxCell id="aQw6tkA5pOAqd_6tdOvo-207" value="" style="verticalLabelPosition=bottom;verticalAlign=top;html=1;shape=mxgraph.basic.rect;fillColor2=none;strokeWidth=1;size=20;indent=5;rounded=0;shadow=0;glass=0;sketch=0;fillStyle=auto;fillColor=#000000;" vertex="1" parent="1">
          <mxGeometry x="1389.5" y="416.25" width="5" height="10" as="geometry" />
        </mxCell>
        <mxCell id="aQw6tkA5pOAqd_6tdOvo-208" value="" style="verticalLabelPosition=bottom;verticalAlign=top;html=1;shape=mxgraph.basic.rect;fillColor2=none;strokeWidth=1;size=20;indent=5;rounded=0;shadow=0;glass=0;sketch=0;fillStyle=auto;fillColor=#000000;" vertex="1" parent="1">
          <mxGeometry x="1399.5" y="416.25" width="5" height="10" as="geometry" />
        </mxCell>
        <mxCell id="aQw6tkA5pOAqd_6tdOvo-209" value="" style="verticalLabelPosition=bottom;verticalAlign=top;html=1;shape=mxgraph.basic.rect;fillColor2=none;strokeWidth=1;size=20;indent=5;rounded=0;shadow=0;glass=0;sketch=0;fillStyle=auto;fillColor=#000000;" vertex="1" parent="1">
          <mxGeometry x="1409.5" y="416.25" width="5" height="10" as="geometry" />
        </mxCell>
        <mxCell id="aQw6tkA5pOAqd_6tdOvo-210" value="" style="verticalLabelPosition=bottom;verticalAlign=top;html=1;shape=mxgraph.basic.rect;fillColor2=none;strokeWidth=1;size=20;indent=5;rounded=0;shadow=0;glass=0;sketch=0;fillStyle=solid;fillColor=#0D0D0D;" vertex="1" parent="1">
          <mxGeometry x="1419.5" y="416.25" width="5" height="10" as="geometry" />
        </mxCell>
        <object label="" id="aQw6tkA5pOAqd_6tdOvo-211">
          <mxCell style="verticalLabelPosition=bottom;verticalAlign=top;html=1;shape=mxgraph.basic.rect;fillColor2=none;strokeWidth=1;size=20;indent=5;rounded=0;shadow=0;glass=0;sketch=0;fillStyle=auto;fillColor=#FF8000;strokeColor=#d79b00;" vertex="1" parent="1">
            <mxGeometry x="1399.5" y="376.25" width="40" height="20" as="geometry" />
          </mxCell>
        </object>
        <mxCell id="aQw6tkA5pOAqd_6tdOvo-212" value="&lt;font style=&quot;font-size: 10px;&quot;&gt;&lt;b style=&quot;&quot;&gt;swp4&lt;/b&gt;&lt;/font&gt;" style="text;html=1;align=center;verticalAlign=middle;resizable=0;points=[];autosize=1;strokeColor=none;fillColor=none;labelBorderColor=none;labelBackgroundColor=none;" vertex="1" parent="1">
          <mxGeometry x="1394.5" y="371.25" width="50" height="30" as="geometry" />
        </mxCell>
        <object label="" id="aQw6tkA5pOAqd_6tdOvo-213">
          <mxCell style="verticalLabelPosition=bottom;verticalAlign=top;html=1;shape=mxgraph.basic.rect;fillColor2=none;strokeWidth=1;size=20;indent=5;rounded=0;shadow=0;glass=0;sketch=0;fillStyle=auto;fillColor=#FF8000;strokeColor=#d79b00;" vertex="1" parent="1">
            <mxGeometry x="1361.5" y="376.25" width="40" height="20" as="geometry" />
          </mxCell>
        </object>
        <mxCell id="aQw6tkA5pOAqd_6tdOvo-214" value="&lt;font style=&quot;font-size: 10px;&quot;&gt;&lt;b style=&quot;&quot;&gt;swp3&lt;/b&gt;&lt;/font&gt;" style="text;html=1;align=center;verticalAlign=middle;resizable=0;points=[];autosize=1;strokeColor=none;fillColor=none;labelBorderColor=none;labelBackgroundColor=none;" vertex="1" parent="1">
          <mxGeometry x="1356.5" y="371.25" width="50" height="30" as="geometry" />
        </mxCell>
        <object label="" id="aQw6tkA5pOAqd_6tdOvo-215">
          <mxCell style="verticalLabelPosition=bottom;verticalAlign=top;html=1;shape=mxgraph.basic.rect;fillColor2=none;strokeWidth=1;size=20;indent=5;rounded=0;shadow=0;glass=0;sketch=0;fillStyle=auto;fillColor=#FF8000;strokeColor=#d79b00;" vertex="1" parent="1">
            <mxGeometry x="1320.5" y="376.25" width="40" height="20" as="geometry" />
          </mxCell>
        </object>
        <mxCell id="aQw6tkA5pOAqd_6tdOvo-216" value="&lt;font style=&quot;font-size: 10px;&quot;&gt;&lt;b style=&quot;&quot;&gt;swp2&lt;/b&gt;&lt;/font&gt;" style="text;html=1;align=center;verticalAlign=middle;resizable=0;points=[];autosize=1;strokeColor=none;fillColor=none;labelBorderColor=none;labelBackgroundColor=none;" vertex="1" parent="1">
          <mxGeometry x="1315.5" y="371.25" width="50" height="30" as="geometry" />
        </mxCell>
        <object label="" id="aQw6tkA5pOAqd_6tdOvo-217">
          <mxCell style="verticalLabelPosition=bottom;verticalAlign=top;html=1;shape=mxgraph.basic.rect;fillColor2=none;strokeWidth=1;size=20;indent=5;rounded=0;shadow=0;glass=0;sketch=0;fillStyle=auto;fillColor=#FF8000;strokeColor=#d79b00;" vertex="1" parent="1">
            <mxGeometry x="1279.5" y="376.25" width="40" height="20" as="geometry" />
          </mxCell>
        </object>
        <mxCell id="aQw6tkA5pOAqd_6tdOvo-218" value="&lt;font style=&quot;font-size: 10px;&quot;&gt;&lt;b style=&quot;&quot;&gt;swp1&lt;/b&gt;&lt;/font&gt;" style="text;html=1;align=center;verticalAlign=middle;resizable=0;points=[];autosize=1;strokeColor=none;fillColor=none;labelBorderColor=none;labelBackgroundColor=none;" vertex="1" parent="1">
          <mxGeometry x="1274.5" y="371.25" width="50" height="30" as="geometry" />
        </mxCell>
        <object label="" id="aQw6tkA5pOAqd_6tdOvo-219">
          <mxCell style="verticalLabelPosition=bottom;verticalAlign=top;html=1;shape=mxgraph.basic.rect;fillColor2=none;strokeWidth=1;size=20;indent=5;rounded=0;shadow=0;glass=0;sketch=0;fillStyle=auto;fillColor=#FF8000;strokeColor=#d79b00;" vertex="1" parent="1">
            <mxGeometry x="1357.5" y="444.25" width="20" height="40" as="geometry" />
          </mxCell>
        </object>
        <mxCell id="aQw6tkA5pOAqd_6tdOvo-220" value="&lt;font style=&quot;font-size: 10px;&quot;&gt;&lt;b style=&quot;&quot;&gt;swp7&lt;/b&gt;&lt;/font&gt;" style="text;html=1;align=center;verticalAlign=middle;resizable=0;points=[];autosize=1;strokeColor=none;fillColor=none;labelBorderColor=none;labelBackgroundColor=none;rotation=270;" vertex="1" parent="1">
          <mxGeometry x="1342.5" y="450.25" width="50" height="30" as="geometry" />
        </mxCell>
        <object label="" id="aQw6tkA5pOAqd_6tdOvo-221">
          <mxCell style="verticalLabelPosition=bottom;verticalAlign=top;html=1;shape=mxgraph.basic.rect;fillColor2=none;strokeWidth=1;size=20;indent=5;rounded=0;shadow=0;glass=0;sketch=0;fillStyle=auto;fillColor=#FF8000;strokeColor=#d79b00;" vertex="1" parent="1">
            <mxGeometry x="1378.5" y="444.25" width="20" height="40" as="geometry" />
          </mxCell>
        </object>
        <mxCell id="aQw6tkA5pOAqd_6tdOvo-222" value="&lt;font style=&quot;font-size: 10px;&quot;&gt;&lt;b style=&quot;&quot;&gt;swp8&lt;/b&gt;&lt;/font&gt;" style="text;html=1;align=center;verticalAlign=middle;resizable=0;points=[];autosize=1;strokeColor=none;fillColor=none;labelBorderColor=none;labelBackgroundColor=none;rotation=270;" vertex="1" parent="1">
          <mxGeometry x="1363.5" y="450.25" width="50" height="30" as="geometry" />
        </mxCell>
        <object label="" id="aQw6tkA5pOAqd_6tdOvo-223">
          <mxCell style="verticalLabelPosition=bottom;verticalAlign=top;html=1;shape=mxgraph.basic.rect;fillColor2=none;strokeWidth=1;size=20;indent=5;rounded=0;shadow=0;glass=0;sketch=0;fillStyle=auto;fillColor=#FF8000;strokeColor=#d79b00;" vertex="1" parent="1">
            <mxGeometry x="1399.5" y="444.25" width="20" height="40" as="geometry" />
          </mxCell>
        </object>
        <mxCell id="aQw6tkA5pOAqd_6tdOvo-224" value="&lt;font style=&quot;font-size: 10px;&quot;&gt;&lt;b style=&quot;&quot;&gt;swp9&lt;/b&gt;&lt;/font&gt;" style="text;html=1;align=center;verticalAlign=middle;resizable=0;points=[];autosize=1;strokeColor=none;fillColor=none;labelBorderColor=none;labelBackgroundColor=none;rotation=270;" vertex="1" parent="1">
          <mxGeometry x="1384.5" y="450.25" width="50" height="30" as="geometry" />
        </mxCell>
        <object label="" id="aQw6tkA5pOAqd_6tdOvo-225">
          <mxCell style="verticalLabelPosition=bottom;verticalAlign=top;html=1;shape=mxgraph.basic.rect;fillColor2=none;strokeWidth=1;size=20;indent=5;rounded=0;shadow=0;glass=0;sketch=0;fillStyle=auto;fillColor=#FF8000;strokeColor=#d79b00;" vertex="1" parent="1">
            <mxGeometry x="1199.5" y="401.75" width="40" height="20" as="geometry" />
          </mxCell>
        </object>
        <mxCell id="aQw6tkA5pOAqd_6tdOvo-226" value="&lt;font style=&quot;font-size: 10px;&quot;&gt;&lt;b style=&quot;&quot;&gt;swp5&lt;/b&gt;&lt;/font&gt;" style="text;html=1;align=center;verticalAlign=middle;resizable=0;points=[];autosize=1;strokeColor=none;fillColor=none;labelBorderColor=none;labelBackgroundColor=none;" vertex="1" parent="1">
          <mxGeometry x="1194.5" y="396.75" width="50" height="30" as="geometry" />
        </mxCell>
        <object label="" id="aQw6tkA5pOAqd_6tdOvo-227">
          <mxCell style="verticalLabelPosition=bottom;verticalAlign=top;html=1;shape=mxgraph.basic.rect;fillColor2=none;strokeWidth=1;size=20;indent=5;rounded=0;shadow=0;glass=0;sketch=0;fillStyle=auto;fillColor=#FF8000;strokeColor=#d79b00;" vertex="1" parent="1">
            <mxGeometry x="1199.5" y="422.75" width="40" height="20" as="geometry" />
          </mxCell>
        </object>
        <mxCell id="aQw6tkA5pOAqd_6tdOvo-228" value="&lt;font style=&quot;font-size: 10px;&quot;&gt;&lt;b style=&quot;&quot;&gt;swp6&lt;/b&gt;&lt;/font&gt;" style="text;html=1;align=center;verticalAlign=middle;resizable=0;points=[];autosize=1;strokeColor=none;fillColor=none;labelBorderColor=none;labelBackgroundColor=none;" vertex="1" parent="1">
          <mxGeometry x="1194.5" y="417.75" width="50" height="30" as="geometry" />
        </mxCell>
        <object label="" id="aQw6tkA5pOAqd_6tdOvo-229">
          <mxCell style="verticalLabelPosition=bottom;verticalAlign=top;html=1;shape=mxgraph.basic.rect;fillColor2=none;strokeWidth=1;size=20;indent=5;rounded=0;shadow=0;glass=0;sketch=0;fillStyle=auto;fillColor=#FF8000;strokeColor=#d79b00;" vertex="1" parent="1">
            <mxGeometry x="1001.5" y="445" width="20" height="40" as="geometry" />
          </mxCell>
        </object>
        <mxCell id="aQw6tkA5pOAqd_6tdOvo-230" value="&lt;font style=&quot;font-size: 10px;&quot;&gt;&lt;b style=&quot;&quot;&gt;swp10&lt;/b&gt;&lt;/font&gt;" style="text;html=1;align=center;verticalAlign=middle;resizable=0;points=[];autosize=1;strokeColor=none;fillColor=none;labelBorderColor=none;labelBackgroundColor=none;rotation=270;" vertex="1" parent="1">
          <mxGeometry x="986.5" y="451" width="50" height="30" as="geometry" />
        </mxCell>
        <object label="" id="aQw6tkA5pOAqd_6tdOvo-231">
          <mxCell style="verticalLabelPosition=bottom;verticalAlign=top;html=1;shape=mxgraph.basic.rect;fillColor2=none;strokeWidth=1;size=20;indent=5;rounded=0;shadow=0;glass=0;sketch=0;fillStyle=auto;fillColor=#FF8000;strokeColor=#d79b00;" vertex="1" parent="1">
            <mxGeometry x="1421.5" y="444" width="20" height="40" as="geometry" />
          </mxCell>
        </object>
        <mxCell id="aQw6tkA5pOAqd_6tdOvo-232" value="&lt;font style=&quot;font-size: 10px;&quot;&gt;&lt;b style=&quot;&quot;&gt;swp10&lt;/b&gt;&lt;/font&gt;" style="text;html=1;align=center;verticalAlign=middle;resizable=0;points=[];autosize=1;strokeColor=none;fillColor=none;labelBorderColor=none;labelBackgroundColor=none;rotation=270;" vertex="1" parent="1">
          <mxGeometry x="1406.5" y="450" width="50" height="30" as="geometry" />
        </mxCell>
        <mxCell id="aQw6tkA5pOAqd_6tdOvo-233" value="&lt;b&gt;&amp;nbsp; &amp;nbsp; &amp;nbsp;spine02&lt;/b&gt;" style="shape=ext;double=1;rounded=0;whiteSpace=wrap;html=1;fillStyle=auto;strokeWidth=3;strokeColor=#009900;glass=0;shadow=0;sketch=0;align=left;" vertex="1" parent="1">
          <mxGeometry x="478" y="80" width="160" height="40" as="geometry" />
        </mxCell>
        <object label="" id="aQw6tkA5pOAqd_6tdOvo-234">
          <mxCell style="verticalLabelPosition=bottom;verticalAlign=top;html=1;shape=mxgraph.basic.rect;fillColor2=none;strokeWidth=1;size=20;indent=5;rounded=0;shadow=0;glass=0;sketch=0;fillStyle=auto;fillColor=#FF8000;strokeColor=#d79b00;" vertex="1" parent="1">
            <mxGeometry x="639" y="120" width="40" height="20" as="geometry" />
          </mxCell>
        </object>
        <mxCell id="aQw6tkA5pOAqd_6tdOvo-235" value="" style="verticalLabelPosition=bottom;verticalAlign=top;html=1;shape=mxgraph.basic.rect;fillColor2=none;strokeWidth=1;size=20;indent=5;rounded=0;shadow=0;glass=0;sketch=0;fillStyle=auto;fillColor=#000000;" vertex="1" parent="1">
          <mxGeometry x="588" y="95" width="5" height="10" as="geometry" />
        </mxCell>
        <mxCell id="aQw6tkA5pOAqd_6tdOvo-236" value="" style="verticalLabelPosition=bottom;verticalAlign=top;html=1;shape=mxgraph.basic.rect;fillColor2=none;strokeWidth=1;size=20;indent=5;rounded=0;shadow=0;glass=0;sketch=0;fillStyle=auto;fillColor=#000000;" vertex="1" parent="1">
          <mxGeometry x="598" y="95" width="5" height="10" as="geometry" />
        </mxCell>
        <mxCell id="aQw6tkA5pOAqd_6tdOvo-237" value="" style="verticalLabelPosition=bottom;verticalAlign=top;html=1;shape=mxgraph.basic.rect;fillColor2=none;strokeWidth=1;size=20;indent=5;rounded=0;shadow=0;glass=0;sketch=0;fillStyle=auto;fillColor=#000000;" vertex="1" parent="1">
          <mxGeometry x="608" y="95" width="5" height="10" as="geometry" />
        </mxCell>
        <mxCell id="aQw6tkA5pOAqd_6tdOvo-238" value="" style="verticalLabelPosition=bottom;verticalAlign=top;html=1;shape=mxgraph.basic.rect;fillColor2=none;strokeWidth=1;size=20;indent=5;rounded=0;shadow=0;glass=0;sketch=0;fillStyle=solid;fillColor=#0D0D0D;" vertex="1" parent="1">
          <mxGeometry x="618" y="95" width="5" height="10" as="geometry" />
        </mxCell>
        <mxCell id="aQw6tkA5pOAqd_6tdOvo-239" value="&lt;font style=&quot;font-size: 10px;&quot;&gt;&lt;b style=&quot;&quot;&gt;swp6&lt;/b&gt;&lt;/font&gt;" style="text;html=1;align=center;verticalAlign=middle;resizable=0;points=[];autosize=1;strokeColor=none;fillColor=none;labelBorderColor=none;labelBackgroundColor=none;" vertex="1" parent="1">
          <mxGeometry x="634" y="115" width="50" height="30" as="geometry" />
        </mxCell>
        <object label="" id="aQw6tkA5pOAqd_6tdOvo-240">
          <mxCell style="verticalLabelPosition=bottom;verticalAlign=top;html=1;shape=mxgraph.basic.rect;fillColor2=none;strokeWidth=1;size=20;indent=5;rounded=0;shadow=0;glass=0;sketch=0;fillStyle=auto;fillColor=#FF8000;strokeColor=#d79b00;" vertex="1" parent="1">
            <mxGeometry x="598" y="120" width="40" height="20" as="geometry" />
          </mxCell>
        </object>
        <mxCell id="aQw6tkA5pOAqd_6tdOvo-241" value="&lt;font style=&quot;font-size: 10px;&quot;&gt;&lt;b style=&quot;&quot;&gt;swp5&lt;/b&gt;&lt;/font&gt;" style="text;html=1;align=center;verticalAlign=middle;resizable=0;points=[];autosize=1;strokeColor=none;fillColor=none;labelBorderColor=none;labelBackgroundColor=none;" vertex="1" parent="1">
          <mxGeometry x="593" y="115" width="50" height="30" as="geometry" />
        </mxCell>
        <object label="" id="aQw6tkA5pOAqd_6tdOvo-242">
          <mxCell style="verticalLabelPosition=bottom;verticalAlign=top;html=1;shape=mxgraph.basic.rect;fillColor2=none;strokeWidth=1;size=20;indent=5;rounded=0;shadow=0;glass=0;sketch=0;fillStyle=auto;fillColor=#FF8000;strokeColor=#d79b00;" vertex="1" parent="1">
            <mxGeometry x="558" y="120" width="40" height="20" as="geometry" />
          </mxCell>
        </object>
        <mxCell id="aQw6tkA5pOAqd_6tdOvo-243" value="&lt;font style=&quot;font-size: 10px;&quot;&gt;&lt;b style=&quot;&quot;&gt;swp4&lt;/b&gt;&lt;/font&gt;" style="text;html=1;align=center;verticalAlign=middle;resizable=0;points=[];autosize=1;strokeColor=none;fillColor=none;labelBorderColor=none;labelBackgroundColor=none;" vertex="1" parent="1">
          <mxGeometry x="553" y="115" width="50" height="30" as="geometry" />
        </mxCell>
        <object label="" id="aQw6tkA5pOAqd_6tdOvo-244">
          <mxCell style="verticalLabelPosition=bottom;verticalAlign=top;html=1;shape=mxgraph.basic.rect;fillColor2=none;strokeWidth=1;size=20;indent=5;rounded=0;shadow=0;glass=0;sketch=0;fillStyle=auto;fillColor=#FF8000;strokeColor=#d79b00;" vertex="1" parent="1">
            <mxGeometry x="520" y="120" width="40" height="20" as="geometry" />
          </mxCell>
        </object>
        <mxCell id="aQw6tkA5pOAqd_6tdOvo-245" value="&lt;font style=&quot;font-size: 10px;&quot;&gt;&lt;b style=&quot;&quot;&gt;swp3&lt;/b&gt;&lt;/font&gt;" style="text;html=1;align=center;verticalAlign=middle;resizable=0;points=[];autosize=1;strokeColor=none;fillColor=none;labelBorderColor=none;labelBackgroundColor=none;" vertex="1" parent="1">
          <mxGeometry x="515" y="115" width="50" height="30" as="geometry" />
        </mxCell>
        <object label="" id="aQw6tkA5pOAqd_6tdOvo-246">
          <mxCell style="verticalLabelPosition=bottom;verticalAlign=top;html=1;shape=mxgraph.basic.rect;fillColor2=none;strokeWidth=1;size=20;indent=5;rounded=0;shadow=0;glass=0;sketch=0;fillStyle=auto;fillColor=#FF8000;strokeColor=#d79b00;" vertex="1" parent="1">
            <mxGeometry x="479" y="120" width="40" height="20" as="geometry" />
          </mxCell>
        </object>
        <mxCell id="aQw6tkA5pOAqd_6tdOvo-247" value="&lt;font style=&quot;font-size: 10px;&quot;&gt;&lt;b style=&quot;&quot;&gt;swp2&lt;/b&gt;&lt;/font&gt;" style="text;html=1;align=center;verticalAlign=middle;resizable=0;points=[];autosize=1;strokeColor=none;fillColor=none;labelBorderColor=none;labelBackgroundColor=none;" vertex="1" parent="1">
          <mxGeometry x="474" y="115" width="50" height="30" as="geometry" />
        </mxCell>
        <object label="" id="aQw6tkA5pOAqd_6tdOvo-248">
          <mxCell style="verticalLabelPosition=bottom;verticalAlign=top;html=1;shape=mxgraph.basic.rect;fillColor2=none;strokeWidth=1;size=20;indent=5;rounded=0;shadow=0;glass=0;sketch=0;fillStyle=auto;fillColor=#FF8000;strokeColor=#d79b00;" vertex="1" parent="1">
            <mxGeometry x="438" y="120" width="40" height="20" as="geometry" />
          </mxCell>
        </object>
        <mxCell id="aQw6tkA5pOAqd_6tdOvo-249" value="&lt;font style=&quot;font-size: 10px;&quot;&gt;&lt;b style=&quot;&quot;&gt;swp1&lt;/b&gt;&lt;/font&gt;" style="text;html=1;align=center;verticalAlign=middle;resizable=0;points=[];autosize=1;strokeColor=none;fillColor=none;labelBorderColor=none;labelBackgroundColor=none;" vertex="1" parent="1">
          <mxGeometry x="433" y="115" width="50" height="30" as="geometry" />
        </mxCell>
        <mxCell id="aQw6tkA5pOAqd_6tdOvo-250" value="&lt;b&gt;&amp;nbsp; &amp;nbsp; &amp;nbsp;spine04&lt;/b&gt;" style="shape=ext;double=1;rounded=0;whiteSpace=wrap;html=1;fillStyle=auto;strokeWidth=3;strokeColor=#009900;glass=0;shadow=0;sketch=0;align=left;" vertex="1" parent="1">
          <mxGeometry x="1157.5" y="80" width="160" height="40" as="geometry" />
        </mxCell>
        <object label="" id="aQw6tkA5pOAqd_6tdOvo-251">
          <mxCell style="verticalLabelPosition=bottom;verticalAlign=top;html=1;shape=mxgraph.basic.rect;fillColor2=none;strokeWidth=1;size=20;indent=5;rounded=0;shadow=0;glass=0;sketch=0;fillStyle=auto;fillColor=#FF8000;strokeColor=#d79b00;" vertex="1" parent="1">
            <mxGeometry x="1318.5" y="120" width="40" height="20" as="geometry" />
          </mxCell>
        </object>
        <mxCell id="aQw6tkA5pOAqd_6tdOvo-252" value="" style="verticalLabelPosition=bottom;verticalAlign=top;html=1;shape=mxgraph.basic.rect;fillColor2=none;strokeWidth=1;size=20;indent=5;rounded=0;shadow=0;glass=0;sketch=0;fillStyle=auto;fillColor=#000000;" vertex="1" parent="1">
          <mxGeometry x="1267.5" y="95" width="5" height="10" as="geometry" />
        </mxCell>
        <mxCell id="aQw6tkA5pOAqd_6tdOvo-253" value="" style="verticalLabelPosition=bottom;verticalAlign=top;html=1;shape=mxgraph.basic.rect;fillColor2=none;strokeWidth=1;size=20;indent=5;rounded=0;shadow=0;glass=0;sketch=0;fillStyle=auto;fillColor=#000000;" vertex="1" parent="1">
          <mxGeometry x="1277.5" y="95" width="5" height="10" as="geometry" />
        </mxCell>
        <mxCell id="aQw6tkA5pOAqd_6tdOvo-254" value="" style="verticalLabelPosition=bottom;verticalAlign=top;html=1;shape=mxgraph.basic.rect;fillColor2=none;strokeWidth=1;size=20;indent=5;rounded=0;shadow=0;glass=0;sketch=0;fillStyle=auto;fillColor=#000000;" vertex="1" parent="1">
          <mxGeometry x="1287.5" y="95" width="5" height="10" as="geometry" />
        </mxCell>
        <mxCell id="aQw6tkA5pOAqd_6tdOvo-255" value="" style="verticalLabelPosition=bottom;verticalAlign=top;html=1;shape=mxgraph.basic.rect;fillColor2=none;strokeWidth=1;size=20;indent=5;rounded=0;shadow=0;glass=0;sketch=0;fillStyle=solid;fillColor=#0D0D0D;" vertex="1" parent="1">
          <mxGeometry x="1297.5" y="95" width="5" height="10" as="geometry" />
        </mxCell>
        <mxCell id="aQw6tkA5pOAqd_6tdOvo-256" value="&lt;font style=&quot;font-size: 10px;&quot;&gt;&lt;b style=&quot;&quot;&gt;swp6&lt;/b&gt;&lt;/font&gt;" style="text;html=1;align=center;verticalAlign=middle;resizable=0;points=[];autosize=1;strokeColor=none;fillColor=none;labelBorderColor=none;labelBackgroundColor=none;" vertex="1" parent="1">
          <mxGeometry x="1313.5" y="115" width="50" height="30" as="geometry" />
        </mxCell>
        <object label="" id="aQw6tkA5pOAqd_6tdOvo-257">
          <mxCell style="verticalLabelPosition=bottom;verticalAlign=top;html=1;shape=mxgraph.basic.rect;fillColor2=none;strokeWidth=1;size=20;indent=5;rounded=0;shadow=0;glass=0;sketch=0;fillStyle=auto;fillColor=#FF8000;strokeColor=#d79b00;" vertex="1" parent="1">
            <mxGeometry x="1277.5" y="120" width="40" height="20" as="geometry" />
          </mxCell>
        </object>
        <mxCell id="aQw6tkA5pOAqd_6tdOvo-258" value="&lt;font style=&quot;font-size: 10px;&quot;&gt;&lt;b style=&quot;&quot;&gt;swp5&lt;/b&gt;&lt;/font&gt;" style="text;html=1;align=center;verticalAlign=middle;resizable=0;points=[];autosize=1;strokeColor=none;fillColor=none;labelBorderColor=none;labelBackgroundColor=none;" vertex="1" parent="1">
          <mxGeometry x="1272.5" y="115" width="50" height="30" as="geometry" />
        </mxCell>
        <object label="" id="aQw6tkA5pOAqd_6tdOvo-259">
          <mxCell style="verticalLabelPosition=bottom;verticalAlign=top;html=1;shape=mxgraph.basic.rect;fillColor2=none;strokeWidth=1;size=20;indent=5;rounded=0;shadow=0;glass=0;sketch=0;fillStyle=auto;fillColor=#FF8000;strokeColor=#d79b00;" vertex="1" parent="1">
            <mxGeometry x="1237.5" y="120" width="40" height="20" as="geometry" />
          </mxCell>
        </object>
        <mxCell id="aQw6tkA5pOAqd_6tdOvo-260" value="&lt;font style=&quot;font-size: 10px;&quot;&gt;&lt;b style=&quot;&quot;&gt;swp4&lt;/b&gt;&lt;/font&gt;" style="text;html=1;align=center;verticalAlign=middle;resizable=0;points=[];autosize=1;strokeColor=none;fillColor=none;labelBorderColor=none;labelBackgroundColor=none;" vertex="1" parent="1">
          <mxGeometry x="1232.5" y="115" width="50" height="30" as="geometry" />
        </mxCell>
        <object label="" id="aQw6tkA5pOAqd_6tdOvo-261">
          <mxCell style="verticalLabelPosition=bottom;verticalAlign=top;html=1;shape=mxgraph.basic.rect;fillColor2=none;strokeWidth=1;size=20;indent=5;rounded=0;shadow=0;glass=0;sketch=0;fillStyle=auto;fillColor=#FF8000;strokeColor=#d79b00;" vertex="1" parent="1">
            <mxGeometry x="1199.5" y="120" width="40" height="20" as="geometry" />
          </mxCell>
        </object>
        <mxCell id="aQw6tkA5pOAqd_6tdOvo-262" value="&lt;font style=&quot;font-size: 10px;&quot;&gt;&lt;b style=&quot;&quot;&gt;swp3&lt;/b&gt;&lt;/font&gt;" style="text;html=1;align=center;verticalAlign=middle;resizable=0;points=[];autosize=1;strokeColor=none;fillColor=none;labelBorderColor=none;labelBackgroundColor=none;" vertex="1" parent="1">
          <mxGeometry x="1194.5" y="115" width="50" height="30" as="geometry" />
        </mxCell>
        <object label="" id="aQw6tkA5pOAqd_6tdOvo-263">
          <mxCell style="verticalLabelPosition=bottom;verticalAlign=top;html=1;shape=mxgraph.basic.rect;fillColor2=none;strokeWidth=1;size=20;indent=5;rounded=0;shadow=0;glass=0;sketch=0;fillStyle=auto;fillColor=#FF8000;strokeColor=#d79b00;" vertex="1" parent="1">
            <mxGeometry x="1158.5" y="120" width="40" height="20" as="geometry" />
          </mxCell>
        </object>
        <mxCell id="aQw6tkA5pOAqd_6tdOvo-264" value="&lt;font style=&quot;font-size: 10px;&quot;&gt;&lt;b style=&quot;&quot;&gt;swp2&lt;/b&gt;&lt;/font&gt;" style="text;html=1;align=center;verticalAlign=middle;resizable=0;points=[];autosize=1;strokeColor=none;fillColor=none;labelBorderColor=none;labelBackgroundColor=none;" vertex="1" parent="1">
          <mxGeometry x="1153.5" y="115" width="50" height="30" as="geometry" />
        </mxCell>
        <object label="" id="aQw6tkA5pOAqd_6tdOvo-265">
          <mxCell style="verticalLabelPosition=bottom;verticalAlign=top;html=1;shape=mxgraph.basic.rect;fillColor2=none;strokeWidth=1;size=20;indent=5;rounded=0;shadow=0;glass=0;sketch=0;fillStyle=auto;fillColor=#FF8000;strokeColor=#d79b00;" vertex="1" parent="1">
            <mxGeometry x="1117.5" y="120" width="40" height="20" as="geometry" />
          </mxCell>
        </object>
        <mxCell id="aQw6tkA5pOAqd_6tdOvo-266" value="&lt;font style=&quot;font-size: 10px;&quot;&gt;&lt;b style=&quot;&quot;&gt;swp1&lt;/b&gt;&lt;/font&gt;" style="text;html=1;align=center;verticalAlign=middle;resizable=0;points=[];autosize=1;strokeColor=none;fillColor=none;labelBorderColor=none;labelBackgroundColor=none;" vertex="1" parent="1">
          <mxGeometry x="1112.5" y="115" width="50" height="30" as="geometry" />
        </mxCell>
        <mxCell id="aQw6tkA5pOAqd_6tdOvo-267" value="&lt;b&gt;&amp;nbsp; &amp;nbsp; &amp;nbsp;spine03&lt;/b&gt;" style="shape=ext;double=1;rounded=0;whiteSpace=wrap;html=1;fillStyle=auto;strokeWidth=3;strokeColor=#009900;glass=0;shadow=0;sketch=0;align=left;" vertex="1" parent="1">
          <mxGeometry x="799.5" y="80" width="160" height="40" as="geometry" />
        </mxCell>
        <object label="" id="aQw6tkA5pOAqd_6tdOvo-268">
          <mxCell style="verticalLabelPosition=bottom;verticalAlign=top;html=1;shape=mxgraph.basic.rect;fillColor2=none;strokeWidth=1;size=20;indent=5;rounded=0;shadow=0;glass=0;sketch=0;fillStyle=auto;fillColor=#FF8000;strokeColor=#d79b00;" vertex="1" parent="1">
            <mxGeometry x="960.5" y="120" width="40" height="20" as="geometry" />
          </mxCell>
        </object>
        <mxCell id="aQw6tkA5pOAqd_6tdOvo-269" value="" style="verticalLabelPosition=bottom;verticalAlign=top;html=1;shape=mxgraph.basic.rect;fillColor2=none;strokeWidth=1;size=20;indent=5;rounded=0;shadow=0;glass=0;sketch=0;fillStyle=auto;fillColor=#000000;" vertex="1" parent="1">
          <mxGeometry x="909.5" y="95" width="5" height="10" as="geometry" />
        </mxCell>
        <mxCell id="aQw6tkA5pOAqd_6tdOvo-270" value="" style="verticalLabelPosition=bottom;verticalAlign=top;html=1;shape=mxgraph.basic.rect;fillColor2=none;strokeWidth=1;size=20;indent=5;rounded=0;shadow=0;glass=0;sketch=0;fillStyle=auto;fillColor=#000000;" vertex="1" parent="1">
          <mxGeometry x="919.5" y="95" width="5" height="10" as="geometry" />
        </mxCell>
        <mxCell id="aQw6tkA5pOAqd_6tdOvo-271" value="" style="verticalLabelPosition=bottom;verticalAlign=top;html=1;shape=mxgraph.basic.rect;fillColor2=none;strokeWidth=1;size=20;indent=5;rounded=0;shadow=0;glass=0;sketch=0;fillStyle=auto;fillColor=#000000;" vertex="1" parent="1">
          <mxGeometry x="929.5" y="95" width="5" height="10" as="geometry" />
        </mxCell>
        <mxCell id="aQw6tkA5pOAqd_6tdOvo-272" value="" style="verticalLabelPosition=bottom;verticalAlign=top;html=1;shape=mxgraph.basic.rect;fillColor2=none;strokeWidth=1;size=20;indent=5;rounded=0;shadow=0;glass=0;sketch=0;fillStyle=solid;fillColor=#0D0D0D;" vertex="1" parent="1">
          <mxGeometry x="939.5" y="95" width="5" height="10" as="geometry" />
        </mxCell>
        <mxCell id="aQw6tkA5pOAqd_6tdOvo-273" value="&lt;font style=&quot;font-size: 10px;&quot;&gt;&lt;b style=&quot;&quot;&gt;swp6&lt;/b&gt;&lt;/font&gt;" style="text;html=1;align=center;verticalAlign=middle;resizable=0;points=[];autosize=1;strokeColor=none;fillColor=none;labelBorderColor=none;labelBackgroundColor=none;" vertex="1" parent="1">
          <mxGeometry x="955.5" y="115" width="50" height="30" as="geometry" />
        </mxCell>
        <object label="" id="aQw6tkA5pOAqd_6tdOvo-274">
          <mxCell style="verticalLabelPosition=bottom;verticalAlign=top;html=1;shape=mxgraph.basic.rect;fillColor2=none;strokeWidth=1;size=20;indent=5;rounded=0;shadow=0;glass=0;sketch=0;fillStyle=auto;fillColor=#FF8000;strokeColor=#d79b00;" vertex="1" parent="1">
            <mxGeometry x="919.5" y="120" width="40" height="20" as="geometry" />
          </mxCell>
        </object>
        <mxCell id="aQw6tkA5pOAqd_6tdOvo-275" value="&lt;font style=&quot;font-size: 10px;&quot;&gt;&lt;b style=&quot;&quot;&gt;swp5&lt;/b&gt;&lt;/font&gt;" style="text;html=1;align=center;verticalAlign=middle;resizable=0;points=[];autosize=1;strokeColor=none;fillColor=none;labelBorderColor=none;labelBackgroundColor=none;" vertex="1" parent="1">
          <mxGeometry x="914.5" y="115" width="50" height="30" as="geometry" />
        </mxCell>
        <object label="" id="aQw6tkA5pOAqd_6tdOvo-276">
          <mxCell style="verticalLabelPosition=bottom;verticalAlign=top;html=1;shape=mxgraph.basic.rect;fillColor2=none;strokeWidth=1;size=20;indent=5;rounded=0;shadow=0;glass=0;sketch=0;fillStyle=auto;fillColor=#FF8000;strokeColor=#d79b00;" vertex="1" parent="1">
            <mxGeometry x="879.5" y="120" width="40" height="20" as="geometry" />
          </mxCell>
        </object>
        <mxCell id="aQw6tkA5pOAqd_6tdOvo-277" value="&lt;font style=&quot;font-size: 10px;&quot;&gt;&lt;b style=&quot;&quot;&gt;swp4&lt;/b&gt;&lt;/font&gt;" style="text;html=1;align=center;verticalAlign=middle;resizable=0;points=[];autosize=1;strokeColor=none;fillColor=none;labelBorderColor=none;labelBackgroundColor=none;" vertex="1" parent="1">
          <mxGeometry x="874.5" y="115" width="50" height="30" as="geometry" />
        </mxCell>
        <object label="" id="aQw6tkA5pOAqd_6tdOvo-278">
          <mxCell style="verticalLabelPosition=bottom;verticalAlign=top;html=1;shape=mxgraph.basic.rect;fillColor2=none;strokeWidth=1;size=20;indent=5;rounded=0;shadow=0;glass=0;sketch=0;fillStyle=auto;fillColor=#FF8000;strokeColor=#d79b00;" vertex="1" parent="1">
            <mxGeometry x="841.5" y="120" width="40" height="20" as="geometry" />
          </mxCell>
        </object>
        <mxCell id="aQw6tkA5pOAqd_6tdOvo-279" value="&lt;font style=&quot;font-size: 10px;&quot;&gt;&lt;b style=&quot;&quot;&gt;swp3&lt;/b&gt;&lt;/font&gt;" style="text;html=1;align=center;verticalAlign=middle;resizable=0;points=[];autosize=1;strokeColor=none;fillColor=none;labelBorderColor=none;labelBackgroundColor=none;" vertex="1" parent="1">
          <mxGeometry x="836.5" y="115" width="50" height="30" as="geometry" />
        </mxCell>
        <object label="" id="aQw6tkA5pOAqd_6tdOvo-280">
          <mxCell style="verticalLabelPosition=bottom;verticalAlign=top;html=1;shape=mxgraph.basic.rect;fillColor2=none;strokeWidth=1;size=20;indent=5;rounded=0;shadow=0;glass=0;sketch=0;fillStyle=auto;fillColor=#FF8000;strokeColor=#d79b00;" vertex="1" parent="1">
            <mxGeometry x="800.5" y="120" width="40" height="20" as="geometry" />
          </mxCell>
        </object>
        <mxCell id="aQw6tkA5pOAqd_6tdOvo-281" value="&lt;font style=&quot;font-size: 10px;&quot;&gt;&lt;b style=&quot;&quot;&gt;swp2&lt;/b&gt;&lt;/font&gt;" style="text;html=1;align=center;verticalAlign=middle;resizable=0;points=[];autosize=1;strokeColor=none;fillColor=none;labelBorderColor=none;labelBackgroundColor=none;" vertex="1" parent="1">
          <mxGeometry x="795.5" y="115" width="50" height="30" as="geometry" />
        </mxCell>
        <object label="" id="aQw6tkA5pOAqd_6tdOvo-282">
          <mxCell style="verticalLabelPosition=bottom;verticalAlign=top;html=1;shape=mxgraph.basic.rect;fillColor2=none;strokeWidth=1;size=20;indent=5;rounded=0;shadow=0;glass=0;sketch=0;fillStyle=auto;fillColor=#FF8000;strokeColor=#d79b00;" vertex="1" parent="1">
            <mxGeometry x="759.5" y="120" width="40" height="20" as="geometry" />
          </mxCell>
        </object>
        <mxCell id="aQw6tkA5pOAqd_6tdOvo-283" value="&lt;font style=&quot;font-size: 10px;&quot;&gt;&lt;b style=&quot;&quot;&gt;swp1&lt;/b&gt;&lt;/font&gt;" style="text;html=1;align=center;verticalAlign=middle;resizable=0;points=[];autosize=1;strokeColor=none;fillColor=none;labelBorderColor=none;labelBackgroundColor=none;" vertex="1" parent="1">
          <mxGeometry x="754.5" y="115" width="50" height="30" as="geometry" />
        </mxCell>
        <mxCell id="aQw6tkA5pOAqd_6tdOvo-302" value="&lt;b&gt;&amp;nbsp; &amp;nbsp; &amp;nbsp;server01&lt;/b&gt;" style="shape=ext;double=1;rounded=0;whiteSpace=wrap;html=1;fillStyle=auto;strokeWidth=3;strokeColor=#000000;glass=0;shadow=0;sketch=0;align=left;" vertex="1" parent="1">
          <mxGeometry x="179" y="520" width="160" height="40" as="geometry" />
        </mxCell>
        <mxCell id="aQw6tkA5pOAqd_6tdOvo-303" value="" style="whiteSpace=wrap;html=1;shape=mxgraph.basic.document;rounded=0;shadow=0;glass=0;labelBackgroundColor=#FF8000;labelBorderColor=none;sketch=0;fillStyle=solid;fontSize=10;fontColor=#000000;strokeColor=#000000;strokeWidth=2;fillColor=none;" vertex="1" parent="1">
          <mxGeometry x="276.5" y="530" width="50" height="20" as="geometry" />
        </mxCell>
        <object label="" id="aQw6tkA5pOAqd_6tdOvo-306">
          <mxCell style="verticalLabelPosition=bottom;verticalAlign=top;html=1;shape=mxgraph.basic.rect;fillColor2=none;strokeWidth=1;size=20;indent=5;rounded=0;shadow=0;glass=0;sketch=0;fillStyle=auto;fillColor=#FF8000;strokeColor=#d79b00;" vertex="1" parent="1">
            <mxGeometry x="344" y="530" width="40" height="20" as="geometry" />
          </mxCell>
        </object>
        <mxCell id="aQw6tkA5pOAqd_6tdOvo-307" value="&lt;font style=&quot;font-size: 10px;&quot;&gt;&lt;b style=&quot;&quot;&gt;e2&lt;/b&gt;&lt;/font&gt;" style="text;html=1;align=center;verticalAlign=middle;resizable=0;points=[];autosize=1;strokeColor=none;fillColor=none;labelBorderColor=none;labelBackgroundColor=none;" vertex="1" parent="1">
          <mxGeometry x="349" y="525" width="30" height="30" as="geometry" />
        </mxCell>
        <object label="" id="aQw6tkA5pOAqd_6tdOvo-308">
          <mxCell style="verticalLabelPosition=bottom;verticalAlign=top;html=1;shape=mxgraph.basic.rect;fillColor2=none;strokeWidth=1;size=20;indent=5;rounded=0;shadow=0;glass=0;sketch=0;fillStyle=auto;fillColor=#FF8000;strokeColor=#d79b00;" vertex="1" parent="1">
            <mxGeometry x="133" y="530" width="40" height="20" as="geometry" />
          </mxCell>
        </object>
        <mxCell id="aQw6tkA5pOAqd_6tdOvo-309" value="&lt;font style=&quot;font-size: 10px;&quot;&gt;&lt;b style=&quot;&quot;&gt;e1&lt;/b&gt;&lt;/font&gt;" style="text;html=1;align=center;verticalAlign=middle;resizable=0;points=[];autosize=1;strokeColor=none;fillColor=none;labelBorderColor=none;labelBackgroundColor=none;" vertex="1" parent="1">
          <mxGeometry x="138" y="525" width="30" height="30" as="geometry" />
        </mxCell>
        <mxCell id="aQw6tkA5pOAqd_6tdOvo-310" value="&lt;b&gt;&amp;nbsp; &amp;nbsp; &amp;nbsp;server02&lt;/b&gt;" style="shape=ext;double=1;rounded=0;whiteSpace=wrap;html=1;fillStyle=auto;strokeWidth=3;strokeColor=#000000;glass=0;shadow=0;sketch=0;align=left;" vertex="1" parent="1">
          <mxGeometry x="178" y="571" width="160" height="40" as="geometry" />
        </mxCell>
        <mxCell id="aQw6tkA5pOAqd_6tdOvo-311" value="" style="whiteSpace=wrap;html=1;shape=mxgraph.basic.document;rounded=0;shadow=0;glass=0;labelBackgroundColor=#FF8000;labelBorderColor=none;sketch=0;fillStyle=solid;fontSize=10;fontColor=#000000;strokeColor=#000000;strokeWidth=2;fillColor=none;" vertex="1" parent="1">
          <mxGeometry x="275.5" y="581" width="50" height="20" as="geometry" />
        </mxCell>
        <object label="" id="aQw6tkA5pOAqd_6tdOvo-312">
          <mxCell style="verticalLabelPosition=bottom;verticalAlign=top;html=1;shape=mxgraph.basic.rect;fillColor2=none;strokeWidth=1;size=20;indent=5;rounded=0;shadow=0;glass=0;sketch=0;fillStyle=auto;fillColor=#FF8000;strokeColor=#d79b00;" vertex="1" parent="1">
            <mxGeometry x="343" y="581" width="40" height="20" as="geometry" />
          </mxCell>
        </object>
        <mxCell id="aQw6tkA5pOAqd_6tdOvo-313" value="&lt;font style=&quot;font-size: 10px;&quot;&gt;&lt;b style=&quot;&quot;&gt;e2&lt;/b&gt;&lt;/font&gt;" style="text;html=1;align=center;verticalAlign=middle;resizable=0;points=[];autosize=1;strokeColor=none;fillColor=none;labelBorderColor=none;labelBackgroundColor=none;" vertex="1" parent="1">
          <mxGeometry x="348" y="576" width="30" height="30" as="geometry" />
        </mxCell>
        <object label="" id="aQw6tkA5pOAqd_6tdOvo-314">
          <mxCell style="verticalLabelPosition=bottom;verticalAlign=top;html=1;shape=mxgraph.basic.rect;fillColor2=none;strokeWidth=1;size=20;indent=5;rounded=0;shadow=0;glass=0;sketch=0;fillStyle=auto;fillColor=#FF8000;strokeColor=#d79b00;" vertex="1" parent="1">
            <mxGeometry x="132" y="581" width="40" height="20" as="geometry" />
          </mxCell>
        </object>
        <mxCell id="aQw6tkA5pOAqd_6tdOvo-315" value="&lt;font style=&quot;font-size: 10px;&quot;&gt;&lt;b style=&quot;&quot;&gt;e1&lt;/b&gt;&lt;/font&gt;" style="text;html=1;align=center;verticalAlign=middle;resizable=0;points=[];autosize=1;strokeColor=none;fillColor=none;labelBorderColor=none;labelBackgroundColor=none;" vertex="1" parent="1">
          <mxGeometry x="137" y="576" width="30" height="30" as="geometry" />
        </mxCell>
        <mxCell id="aQw6tkA5pOAqd_6tdOvo-316" value="&lt;b&gt;&amp;nbsp; &amp;nbsp; &amp;nbsp;server03&lt;/b&gt;" style="shape=ext;double=1;rounded=0;whiteSpace=wrap;html=1;fillStyle=auto;strokeWidth=3;strokeColor=#000000;glass=0;shadow=0;sketch=0;align=left;" vertex="1" parent="1">
          <mxGeometry x="178" y="624" width="160" height="40" as="geometry" />
        </mxCell>
        <mxCell id="aQw6tkA5pOAqd_6tdOvo-317" value="" style="whiteSpace=wrap;html=1;shape=mxgraph.basic.document;rounded=0;shadow=0;glass=0;labelBackgroundColor=#FF8000;labelBorderColor=none;sketch=0;fillStyle=solid;fontSize=10;fontColor=#000000;strokeColor=#000000;strokeWidth=2;fillColor=none;" vertex="1" parent="1">
          <mxGeometry x="275.5" y="634" width="50" height="20" as="geometry" />
        </mxCell>
        <object label="" id="aQw6tkA5pOAqd_6tdOvo-318">
          <mxCell style="verticalLabelPosition=bottom;verticalAlign=top;html=1;shape=mxgraph.basic.rect;fillColor2=none;strokeWidth=1;size=20;indent=5;rounded=0;shadow=0;glass=0;sketch=0;fillStyle=auto;fillColor=#FF8000;strokeColor=#d79b00;" vertex="1" parent="1">
            <mxGeometry x="343" y="634" width="40" height="20" as="geometry" />
          </mxCell>
        </object>
        <mxCell id="aQw6tkA5pOAqd_6tdOvo-319" value="&lt;font style=&quot;font-size: 10px;&quot;&gt;&lt;b style=&quot;&quot;&gt;e2&lt;/b&gt;&lt;/font&gt;" style="text;html=1;align=center;verticalAlign=middle;resizable=0;points=[];autosize=1;strokeColor=none;fillColor=none;labelBorderColor=none;labelBackgroundColor=none;" vertex="1" parent="1">
          <mxGeometry x="348" y="629" width="30" height="30" as="geometry" />
        </mxCell>
        <object label="" id="aQw6tkA5pOAqd_6tdOvo-320">
          <mxCell style="verticalLabelPosition=bottom;verticalAlign=top;html=1;shape=mxgraph.basic.rect;fillColor2=none;strokeWidth=1;size=20;indent=5;rounded=0;shadow=0;glass=0;sketch=0;fillStyle=auto;fillColor=#FF8000;strokeColor=#d79b00;" vertex="1" parent="1">
            <mxGeometry x="132" y="634" width="40" height="20" as="geometry" />
          </mxCell>
        </object>
        <mxCell id="aQw6tkA5pOAqd_6tdOvo-321" value="&lt;font style=&quot;font-size: 10px;&quot;&gt;&lt;b style=&quot;&quot;&gt;e1&lt;/b&gt;&lt;/font&gt;" style="text;html=1;align=center;verticalAlign=middle;resizable=0;points=[];autosize=1;strokeColor=none;fillColor=none;labelBorderColor=none;labelBackgroundColor=none;" vertex="1" parent="1">
          <mxGeometry x="137" y="629" width="30" height="30" as="geometry" />
        </mxCell>
        <mxCell id="aQw6tkA5pOAqd_6tdOvo-325" value="&lt;b&gt;&amp;nbsp; &amp;nbsp; &amp;nbsp;server04&lt;/b&gt;" style="shape=ext;double=1;rounded=0;whiteSpace=wrap;html=1;fillStyle=auto;strokeWidth=3;strokeColor=#000000;glass=0;shadow=0;sketch=0;align=left;" vertex="1" parent="1">
          <mxGeometry x="660" y="520" width="160" height="40" as="geometry" />
        </mxCell>
        <mxCell id="aQw6tkA5pOAqd_6tdOvo-326" value="" style="whiteSpace=wrap;html=1;shape=mxgraph.basic.document;rounded=0;shadow=0;glass=0;labelBackgroundColor=#FF8000;labelBorderColor=none;sketch=0;fillStyle=solid;fontSize=10;fontColor=#000000;strokeColor=#000000;strokeWidth=2;fillColor=none;" vertex="1" parent="1">
          <mxGeometry x="757.5" y="530" width="50" height="20" as="geometry" />
        </mxCell>
        <object label="" id="aQw6tkA5pOAqd_6tdOvo-327">
          <mxCell style="verticalLabelPosition=bottom;verticalAlign=top;html=1;shape=mxgraph.basic.rect;fillColor2=none;strokeWidth=1;size=20;indent=5;rounded=0;shadow=0;glass=0;sketch=0;fillStyle=auto;fillColor=#FF8000;strokeColor=#d79b00;" vertex="1" parent="1">
            <mxGeometry x="825" y="530" width="40" height="20" as="geometry" />
          </mxCell>
        </object>
        <mxCell id="aQw6tkA5pOAqd_6tdOvo-328" value="&lt;font style=&quot;font-size: 10px;&quot;&gt;&lt;b style=&quot;&quot;&gt;e2&lt;/b&gt;&lt;/font&gt;" style="text;html=1;align=center;verticalAlign=middle;resizable=0;points=[];autosize=1;strokeColor=none;fillColor=none;labelBorderColor=none;labelBackgroundColor=none;" vertex="1" parent="1">
          <mxGeometry x="830" y="525" width="30" height="30" as="geometry" />
        </mxCell>
        <object label="" id="aQw6tkA5pOAqd_6tdOvo-329">
          <mxCell style="verticalLabelPosition=bottom;verticalAlign=top;html=1;shape=mxgraph.basic.rect;fillColor2=none;strokeWidth=1;size=20;indent=5;rounded=0;shadow=0;glass=0;sketch=0;fillStyle=auto;fillColor=#FF8000;strokeColor=#d79b00;" vertex="1" parent="1">
            <mxGeometry x="614" y="530" width="40" height="20" as="geometry" />
          </mxCell>
        </object>
        <mxCell id="aQw6tkA5pOAqd_6tdOvo-330" value="&lt;font style=&quot;font-size: 10px;&quot;&gt;&lt;b style=&quot;&quot;&gt;e1&lt;/b&gt;&lt;/font&gt;" style="text;html=1;align=center;verticalAlign=middle;resizable=0;points=[];autosize=1;strokeColor=none;fillColor=none;labelBorderColor=none;labelBackgroundColor=none;" vertex="1" parent="1">
          <mxGeometry x="619" y="525" width="30" height="30" as="geometry" />
        </mxCell>
        <mxCell id="aQw6tkA5pOAqd_6tdOvo-331" value="&lt;b&gt;&amp;nbsp; &amp;nbsp; &amp;nbsp;server05&lt;/b&gt;" style="shape=ext;double=1;rounded=0;whiteSpace=wrap;html=1;fillStyle=auto;strokeWidth=3;strokeColor=#000000;glass=0;shadow=0;sketch=0;align=left;" vertex="1" parent="1">
          <mxGeometry x="659" y="571" width="160" height="40" as="geometry" />
        </mxCell>
        <mxCell id="aQw6tkA5pOAqd_6tdOvo-332" value="" style="whiteSpace=wrap;html=1;shape=mxgraph.basic.document;rounded=0;shadow=0;glass=0;labelBackgroundColor=#FF8000;labelBorderColor=none;sketch=0;fillStyle=solid;fontSize=10;fontColor=#000000;strokeColor=#000000;strokeWidth=2;fillColor=none;" vertex="1" parent="1">
          <mxGeometry x="756.5" y="581" width="50" height="20" as="geometry" />
        </mxCell>
        <object label="" id="aQw6tkA5pOAqd_6tdOvo-333">
          <mxCell style="verticalLabelPosition=bottom;verticalAlign=top;html=1;shape=mxgraph.basic.rect;fillColor2=none;strokeWidth=1;size=20;indent=5;rounded=0;shadow=0;glass=0;sketch=0;fillStyle=auto;fillColor=#FF8000;strokeColor=#d79b00;" vertex="1" parent="1">
            <mxGeometry x="824" y="581" width="40" height="20" as="geometry" />
          </mxCell>
        </object>
        <mxCell id="aQw6tkA5pOAqd_6tdOvo-334" value="&lt;font style=&quot;font-size: 10px;&quot;&gt;&lt;b style=&quot;&quot;&gt;e2&lt;/b&gt;&lt;/font&gt;" style="text;html=1;align=center;verticalAlign=middle;resizable=0;points=[];autosize=1;strokeColor=none;fillColor=none;labelBorderColor=none;labelBackgroundColor=none;" vertex="1" parent="1">
          <mxGeometry x="829" y="576" width="30" height="30" as="geometry" />
        </mxCell>
        <object label="" id="aQw6tkA5pOAqd_6tdOvo-335">
          <mxCell style="verticalLabelPosition=bottom;verticalAlign=top;html=1;shape=mxgraph.basic.rect;fillColor2=none;strokeWidth=1;size=20;indent=5;rounded=0;shadow=0;glass=0;sketch=0;fillStyle=auto;fillColor=#FF8000;strokeColor=#d79b00;" vertex="1" parent="1">
            <mxGeometry x="613" y="581" width="40" height="20" as="geometry" />
          </mxCell>
        </object>
        <mxCell id="aQw6tkA5pOAqd_6tdOvo-336" value="&lt;font style=&quot;font-size: 10px;&quot;&gt;&lt;b style=&quot;&quot;&gt;e1&lt;/b&gt;&lt;/font&gt;" style="text;html=1;align=center;verticalAlign=middle;resizable=0;points=[];autosize=1;strokeColor=none;fillColor=none;labelBorderColor=none;labelBackgroundColor=none;" vertex="1" parent="1">
          <mxGeometry x="618" y="576" width="30" height="30" as="geometry" />
        </mxCell>
        <mxCell id="aQw6tkA5pOAqd_6tdOvo-337" value="&lt;b&gt;&amp;nbsp; &amp;nbsp; &amp;nbsp;server06&lt;/b&gt;" style="shape=ext;double=1;rounded=0;whiteSpace=wrap;html=1;fillStyle=auto;strokeWidth=3;strokeColor=#000000;glass=0;shadow=0;sketch=0;align=left;" vertex="1" parent="1">
          <mxGeometry x="659" y="624" width="160" height="40" as="geometry" />
        </mxCell>
        <mxCell id="aQw6tkA5pOAqd_6tdOvo-338" value="" style="whiteSpace=wrap;html=1;shape=mxgraph.basic.document;rounded=0;shadow=0;glass=0;labelBackgroundColor=#FF8000;labelBorderColor=none;sketch=0;fillStyle=solid;fontSize=10;fontColor=#000000;strokeColor=#000000;strokeWidth=2;fillColor=none;" vertex="1" parent="1">
          <mxGeometry x="756.5" y="634" width="50" height="20" as="geometry" />
        </mxCell>
        <object label="" id="aQw6tkA5pOAqd_6tdOvo-339">
          <mxCell style="verticalLabelPosition=bottom;verticalAlign=top;html=1;shape=mxgraph.basic.rect;fillColor2=none;strokeWidth=1;size=20;indent=5;rounded=0;shadow=0;glass=0;sketch=0;fillStyle=auto;fillColor=#FF8000;strokeColor=#d79b00;" vertex="1" parent="1">
            <mxGeometry x="824" y="634" width="40" height="20" as="geometry" />
          </mxCell>
        </object>
        <mxCell id="aQw6tkA5pOAqd_6tdOvo-340" value="&lt;font style=&quot;font-size: 10px;&quot;&gt;&lt;b style=&quot;&quot;&gt;e2&lt;/b&gt;&lt;/font&gt;" style="text;html=1;align=center;verticalAlign=middle;resizable=0;points=[];autosize=1;strokeColor=none;fillColor=none;labelBorderColor=none;labelBackgroundColor=none;" vertex="1" parent="1">
          <mxGeometry x="829" y="629" width="30" height="30" as="geometry" />
        </mxCell>
        <object label="" id="aQw6tkA5pOAqd_6tdOvo-341">
          <mxCell style="verticalLabelPosition=bottom;verticalAlign=top;html=1;shape=mxgraph.basic.rect;fillColor2=none;strokeWidth=1;size=20;indent=5;rounded=0;shadow=0;glass=0;sketch=0;fillStyle=auto;fillColor=#FF8000;strokeColor=#d79b00;" vertex="1" parent="1">
            <mxGeometry x="613" y="634" width="40" height="20" as="geometry" />
          </mxCell>
        </object>
        <mxCell id="aQw6tkA5pOAqd_6tdOvo-342" value="&lt;font style=&quot;font-size: 10px;&quot;&gt;&lt;b style=&quot;&quot;&gt;e1&lt;/b&gt;&lt;/font&gt;" style="text;html=1;align=center;verticalAlign=middle;resizable=0;points=[];autosize=1;strokeColor=none;fillColor=none;labelBorderColor=none;labelBackgroundColor=none;" vertex="1" parent="1">
          <mxGeometry x="618" y="629" width="30" height="30" as="geometry" />
        </mxCell>
        <mxCell id="aQw6tkA5pOAqd_6tdOvo-343" value="&lt;b&gt;&amp;nbsp; &amp;nbsp; &amp;nbsp;server07&lt;/b&gt;" style="shape=ext;double=1;rounded=0;whiteSpace=wrap;html=1;fillStyle=auto;strokeWidth=3;strokeColor=#000000;glass=0;shadow=0;sketch=0;align=left;" vertex="1" parent="1">
          <mxGeometry x="1140.5" y="520" width="160" height="40" as="geometry" />
        </mxCell>
        <mxCell id="aQw6tkA5pOAqd_6tdOvo-344" value="" style="whiteSpace=wrap;html=1;shape=mxgraph.basic.document;rounded=0;shadow=0;glass=0;labelBackgroundColor=#FF8000;labelBorderColor=none;sketch=0;fillStyle=solid;fontSize=10;fontColor=#000000;strokeColor=#000000;strokeWidth=2;fillColor=none;" vertex="1" parent="1">
          <mxGeometry x="1238" y="530" width="50" height="20" as="geometry" />
        </mxCell>
        <object label="" id="aQw6tkA5pOAqd_6tdOvo-345">
          <mxCell style="verticalLabelPosition=bottom;verticalAlign=top;html=1;shape=mxgraph.basic.rect;fillColor2=none;strokeWidth=1;size=20;indent=5;rounded=0;shadow=0;glass=0;sketch=0;fillStyle=auto;fillColor=#FF8000;strokeColor=#d79b00;" vertex="1" parent="1">
            <mxGeometry x="1305.5" y="530" width="40" height="20" as="geometry" />
          </mxCell>
        </object>
        <mxCell id="aQw6tkA5pOAqd_6tdOvo-346" value="&lt;font style=&quot;font-size: 10px;&quot;&gt;&lt;b style=&quot;&quot;&gt;e2&lt;/b&gt;&lt;/font&gt;" style="text;html=1;align=center;verticalAlign=middle;resizable=0;points=[];autosize=1;strokeColor=none;fillColor=none;labelBorderColor=none;labelBackgroundColor=none;" vertex="1" parent="1">
          <mxGeometry x="1310.5" y="525" width="30" height="30" as="geometry" />
        </mxCell>
        <object label="" id="aQw6tkA5pOAqd_6tdOvo-347">
          <mxCell style="verticalLabelPosition=bottom;verticalAlign=top;html=1;shape=mxgraph.basic.rect;fillColor2=none;strokeWidth=1;size=20;indent=5;rounded=0;shadow=0;glass=0;sketch=0;fillStyle=auto;fillColor=#FF8000;strokeColor=#d79b00;" vertex="1" parent="1">
            <mxGeometry x="1094.5" y="530" width="40" height="20" as="geometry" />
          </mxCell>
        </object>
        <mxCell id="aQw6tkA5pOAqd_6tdOvo-348" value="&lt;font style=&quot;font-size: 10px;&quot;&gt;&lt;b style=&quot;&quot;&gt;e1&lt;/b&gt;&lt;/font&gt;" style="text;html=1;align=center;verticalAlign=middle;resizable=0;points=[];autosize=1;strokeColor=none;fillColor=none;labelBorderColor=none;labelBackgroundColor=none;" vertex="1" parent="1">
          <mxGeometry x="1099.5" y="525" width="30" height="30" as="geometry" />
        </mxCell>
        <mxCell id="aQw6tkA5pOAqd_6tdOvo-349" value="&lt;b&gt;&amp;nbsp; &amp;nbsp; &amp;nbsp;server08&lt;/b&gt;" style="shape=ext;double=1;rounded=0;whiteSpace=wrap;html=1;fillStyle=auto;strokeWidth=3;strokeColor=#000000;glass=0;shadow=0;sketch=0;align=left;" vertex="1" parent="1">
          <mxGeometry x="1139.5" y="571" width="160" height="40" as="geometry" />
        </mxCell>
        <mxCell id="aQw6tkA5pOAqd_6tdOvo-350" value="" style="whiteSpace=wrap;html=1;shape=mxgraph.basic.document;rounded=0;shadow=0;glass=0;labelBackgroundColor=#FF8000;labelBorderColor=none;sketch=0;fillStyle=solid;fontSize=10;fontColor=#000000;strokeColor=#000000;strokeWidth=2;fillColor=none;" vertex="1" parent="1">
          <mxGeometry x="1237" y="581" width="50" height="20" as="geometry" />
        </mxCell>
        <object label="" id="aQw6tkA5pOAqd_6tdOvo-351">
          <mxCell style="verticalLabelPosition=bottom;verticalAlign=top;html=1;shape=mxgraph.basic.rect;fillColor2=none;strokeWidth=1;size=20;indent=5;rounded=0;shadow=0;glass=0;sketch=0;fillStyle=auto;fillColor=#FF8000;strokeColor=#d79b00;" vertex="1" parent="1">
            <mxGeometry x="1304.5" y="581" width="40" height="20" as="geometry" />
          </mxCell>
        </object>
        <mxCell id="aQw6tkA5pOAqd_6tdOvo-352" value="&lt;font style=&quot;font-size: 10px;&quot;&gt;&lt;b style=&quot;&quot;&gt;e2&lt;/b&gt;&lt;/font&gt;" style="text;html=1;align=center;verticalAlign=middle;resizable=0;points=[];autosize=1;strokeColor=none;fillColor=none;labelBorderColor=none;labelBackgroundColor=none;" vertex="1" parent="1">
          <mxGeometry x="1309.5" y="576" width="30" height="30" as="geometry" />
        </mxCell>
        <object label="" id="aQw6tkA5pOAqd_6tdOvo-353">
          <mxCell style="verticalLabelPosition=bottom;verticalAlign=top;html=1;shape=mxgraph.basic.rect;fillColor2=none;strokeWidth=1;size=20;indent=5;rounded=0;shadow=0;glass=0;sketch=0;fillStyle=auto;fillColor=#FF8000;strokeColor=#d79b00;" vertex="1" parent="1">
            <mxGeometry x="1093.5" y="581" width="40" height="20" as="geometry" />
          </mxCell>
        </object>
        <mxCell id="aQw6tkA5pOAqd_6tdOvo-354" value="&lt;font style=&quot;font-size: 10px;&quot;&gt;&lt;b style=&quot;&quot;&gt;e1&lt;/b&gt;&lt;/font&gt;" style="text;html=1;align=center;verticalAlign=middle;resizable=0;points=[];autosize=1;strokeColor=none;fillColor=none;labelBorderColor=none;labelBackgroundColor=none;" vertex="1" parent="1">
          <mxGeometry x="1098.5" y="576" width="30" height="30" as="geometry" />
        </mxCell>
        <mxCell id="aQw6tkA5pOAqd_6tdOvo-355" value="&lt;b&gt;&amp;nbsp; &amp;nbsp; fw1&lt;/b&gt;" style="shape=ext;double=1;rounded=0;whiteSpace=wrap;html=1;fillStyle=auto;strokeWidth=3;strokeColor=#FF0000;glass=0;shadow=0;sketch=0;align=left;" vertex="1" parent="1">
          <mxGeometry x="1139.5" y="624" width="160" height="40" as="geometry" />
        </mxCell>
        <object label="" id="aQw6tkA5pOAqd_6tdOvo-357">
          <mxCell style="verticalLabelPosition=bottom;verticalAlign=top;html=1;shape=mxgraph.basic.rect;fillColor2=none;strokeWidth=1;size=20;indent=5;rounded=0;shadow=0;glass=0;sketch=0;fillStyle=auto;fillColor=#FF8000;strokeColor=#d79b00;" vertex="1" parent="1">
            <mxGeometry x="1304.5" y="634" width="40" height="20" as="geometry" />
          </mxCell>
        </object>
        <mxCell id="aQw6tkA5pOAqd_6tdOvo-358" value="&lt;font style=&quot;font-size: 10px;&quot;&gt;&lt;b style=&quot;&quot;&gt;swp2&lt;/b&gt;&lt;/font&gt;" style="text;html=1;align=center;verticalAlign=middle;resizable=0;points=[];autosize=1;strokeColor=none;fillColor=none;labelBorderColor=none;labelBackgroundColor=none;" vertex="1" parent="1">
          <mxGeometry x="1299.5" y="629" width="50" height="30" as="geometry" />
        </mxCell>
        <object label="" id="aQw6tkA5pOAqd_6tdOvo-359">
          <mxCell style="verticalLabelPosition=bottom;verticalAlign=top;html=1;shape=mxgraph.basic.rect;fillColor2=none;strokeWidth=1;size=20;indent=5;rounded=0;shadow=0;glass=0;sketch=0;fillStyle=auto;fillColor=#FF8000;strokeColor=#d79b00;" vertex="1" parent="1">
            <mxGeometry x="1093.5" y="634" width="40" height="20" as="geometry" />
          </mxCell>
        </object>
        <mxCell id="aQw6tkA5pOAqd_6tdOvo-360" value="&lt;font style=&quot;font-size: 10px;&quot;&gt;&lt;b style=&quot;&quot;&gt;swp1&lt;/b&gt;&lt;/font&gt;" style="text;html=1;align=center;verticalAlign=middle;resizable=0;points=[];autosize=1;strokeColor=none;fillColor=none;labelBorderColor=none;labelBackgroundColor=none;" vertex="1" parent="1">
          <mxGeometry x="1088.5" y="629" width="50" height="30" as="geometry" />
        </mxCell>
        <mxCell id="aQw6tkA5pOAqd_6tdOvo-363" value="" style="verticalLabelPosition=bottom;verticalAlign=top;html=1;shape=mxgraph.basic.4_point_star_2;dx=0.8;rounded=0;shadow=0;glass=0;labelBackgroundColor=#FF8000;labelBorderColor=none;sketch=0;fillStyle=solid;fontSize=10;fontColor=#000000;strokeColor=#000000;strokeWidth=2;fillColor=none;" vertex="1" parent="1">
          <mxGeometry x="1220" y="634" width="17" height="20" as="geometry" />
        </mxCell>
        <mxCell id="aQw6tkA5pOAqd_6tdOvo-367" value="" style="verticalLabelPosition=bottom;verticalAlign=top;html=1;shape=mxgraph.basic.4_point_star_2;dx=0.8;rounded=0;shadow=0;glass=0;labelBackgroundColor=#FF8000;labelBorderColor=none;sketch=0;fillStyle=solid;fontSize=10;fontColor=#000000;strokeColor=#000000;strokeWidth=2;fillColor=none;" vertex="1" parent="1">
          <mxGeometry x="1245" y="634" width="17" height="20" as="geometry" />
        </mxCell>
        <mxCell id="aQw6tkA5pOAqd_6tdOvo-368" value="" style="verticalLabelPosition=bottom;verticalAlign=top;html=1;shape=mxgraph.basic.4_point_star_2;dx=0.8;rounded=0;shadow=0;glass=0;labelBackgroundColor=#FF8000;labelBorderColor=none;sketch=0;fillStyle=solid;fontSize=10;fontColor=#000000;strokeColor=#000000;strokeWidth=2;fillColor=none;" vertex="1" parent="1">
          <mxGeometry x="1270" y="634" width="17" height="20" as="geometry" />
        </mxCell>
        <mxCell id="aQw6tkA5pOAqd_6tdOvo-370" value="&lt;b&gt;&amp;nbsp; &amp;nbsp; fw2&lt;/b&gt;" style="shape=ext;double=1;rounded=0;whiteSpace=wrap;html=1;fillStyle=auto;strokeWidth=3;strokeColor=#FF0000;glass=0;shadow=0;sketch=0;align=left;" vertex="1" parent="1">
          <mxGeometry x="1139.5" y="674" width="160" height="40" as="geometry" />
        </mxCell>
        <object label="" id="aQw6tkA5pOAqd_6tdOvo-371">
          <mxCell style="verticalLabelPosition=bottom;verticalAlign=top;html=1;shape=mxgraph.basic.rect;fillColor2=none;strokeWidth=1;size=20;indent=5;rounded=0;shadow=0;glass=0;sketch=0;fillStyle=auto;fillColor=#FF8000;strokeColor=#d79b00;" vertex="1" parent="1">
            <mxGeometry x="1304.5" y="684" width="40" height="20" as="geometry" />
          </mxCell>
        </object>
        <mxCell id="aQw6tkA5pOAqd_6tdOvo-372" value="&lt;font style=&quot;font-size: 10px;&quot;&gt;&lt;b style=&quot;&quot;&gt;swp2&lt;/b&gt;&lt;/font&gt;" style="text;html=1;align=center;verticalAlign=middle;resizable=0;points=[];autosize=1;strokeColor=none;fillColor=none;labelBorderColor=none;labelBackgroundColor=none;" vertex="1" parent="1">
          <mxGeometry x="1299.5" y="679" width="50" height="30" as="geometry" />
        </mxCell>
        <object label="" id="aQw6tkA5pOAqd_6tdOvo-373">
          <mxCell style="verticalLabelPosition=bottom;verticalAlign=top;html=1;shape=mxgraph.basic.rect;fillColor2=none;strokeWidth=1;size=20;indent=5;rounded=0;shadow=0;glass=0;sketch=0;fillStyle=auto;fillColor=#FF8000;strokeColor=#d79b00;" vertex="1" parent="1">
            <mxGeometry x="1093.5" y="684" width="40" height="20" as="geometry" />
          </mxCell>
        </object>
        <mxCell id="aQw6tkA5pOAqd_6tdOvo-374" value="&lt;font style=&quot;font-size: 10px;&quot;&gt;&lt;b style=&quot;&quot;&gt;swp1&lt;/b&gt;&lt;/font&gt;" style="text;html=1;align=center;verticalAlign=middle;resizable=0;points=[];autosize=1;strokeColor=none;fillColor=none;labelBorderColor=none;labelBackgroundColor=none;" vertex="1" parent="1">
          <mxGeometry x="1088.5" y="679" width="50" height="30" as="geometry" />
        </mxCell>
        <mxCell id="aQw6tkA5pOAqd_6tdOvo-375" value="" style="verticalLabelPosition=bottom;verticalAlign=top;html=1;shape=mxgraph.basic.4_point_star_2;dx=0.8;rounded=0;shadow=0;glass=0;labelBackgroundColor=#FF8000;labelBorderColor=none;sketch=0;fillStyle=solid;fontSize=10;fontColor=#000000;strokeColor=#000000;strokeWidth=2;fillColor=none;" vertex="1" parent="1">
          <mxGeometry x="1220" y="684" width="17" height="20" as="geometry" />
        </mxCell>
        <mxCell id="aQw6tkA5pOAqd_6tdOvo-376" value="" style="verticalLabelPosition=bottom;verticalAlign=top;html=1;shape=mxgraph.basic.4_point_star_2;dx=0.8;rounded=0;shadow=0;glass=0;labelBackgroundColor=#FF8000;labelBorderColor=none;sketch=0;fillStyle=solid;fontSize=10;fontColor=#000000;strokeColor=#000000;strokeWidth=2;fillColor=none;" vertex="1" parent="1">
          <mxGeometry x="1245" y="684" width="17" height="20" as="geometry" />
        </mxCell>
        <mxCell id="aQw6tkA5pOAqd_6tdOvo-377" value="" style="verticalLabelPosition=bottom;verticalAlign=top;html=1;shape=mxgraph.basic.4_point_star_2;dx=0.8;rounded=0;shadow=0;glass=0;labelBackgroundColor=#FF8000;labelBorderColor=none;sketch=0;fillStyle=solid;fontSize=10;fontColor=#000000;strokeColor=#000000;strokeWidth=2;fillColor=none;" vertex="1" parent="1">
          <mxGeometry x="1270" y="684" width="17" height="20" as="geometry" />
        </mxCell>
        <mxCell id="aQw6tkA5pOAqd_6tdOvo-382" value="" style="endArrow=none;html=1;rounded=0;fontSize=10;fontColor=#000000;" edge="1" parent="1">
          <mxGeometry width="50" height="50" relative="1" as="geometry">
            <mxPoint x="99" y="376" as="sourcePoint" />
            <mxPoint x="440" y="140" as="targetPoint" />
          </mxGeometry>
        </mxCell>
        <mxCell id="aQw6tkA5pOAqd_6tdOvo-383" value="" style="endArrow=none;html=1;rounded=0;fontSize=10;fontColor=#000000;" edge="1" parent="1">
          <mxGeometry width="50" height="50" relative="1" as="geometry">
            <mxPoint x="58" y="375.5" as="sourcePoint" />
            <mxPoint x="140" y="140" as="targetPoint" />
          </mxGeometry>
        </mxCell>
        <mxCell id="aQw6tkA5pOAqd_6tdOvo-384" value="" style="endArrow=none;html=1;rounded=0;fontSize=10;fontColor=#000000;entryX=0.197;entryY=0.949;entryDx=0;entryDy=0;entryPerimeter=0;" edge="1" parent="1" target="aQw6tkA5pOAqd_6tdOvo-283">
          <mxGeometry width="50" height="50" relative="1" as="geometry">
            <mxPoint x="138" y="376.75" as="sourcePoint" />
            <mxPoint x="493" y="146.75" as="targetPoint" />
          </mxGeometry>
        </mxCell>
        <mxCell id="aQw6tkA5pOAqd_6tdOvo-385" value="" style="endArrow=none;html=1;rounded=0;fontSize=10;fontColor=#000000;" edge="1" parent="1">
          <mxGeometry width="50" height="50" relative="1" as="geometry">
            <mxPoint x="179" y="376.75" as="sourcePoint" />
            <mxPoint x="1120" y="140" as="targetPoint" />
          </mxGeometry>
        </mxCell>
        <mxCell id="aQw6tkA5pOAqd_6tdOvo-386" value="" style="endArrow=none;html=1;rounded=0;fontSize=10;fontColor=#000000;" edge="1" parent="1">
          <mxGeometry width="50" height="50" relative="1" as="geometry">
            <mxPoint x="334" y="375.5" as="sourcePoint" />
            <mxPoint x="170" y="140" as="targetPoint" />
          </mxGeometry>
        </mxCell>
        <mxCell id="aQw6tkA5pOAqd_6tdOvo-387" value="" style="endArrow=none;html=1;rounded=0;fontSize=10;fontColor=#000000;entryX=1.105;entryY=0.949;entryDx=0;entryDy=0;entryPerimeter=0;" edge="1" parent="1" target="aQw6tkA5pOAqd_6tdOvo-53">
          <mxGeometry width="50" height="50" relative="1" as="geometry">
            <mxPoint x="544" y="376.75" as="sourcePoint" />
            <mxPoint x="400" y="141.24" as="targetPoint" />
          </mxGeometry>
        </mxCell>
        <mxCell id="aQw6tkA5pOAqd_6tdOvo-388" value="" style="endArrow=none;html=1;rounded=0;fontSize=10;fontColor=#000000;" edge="1" parent="1">
          <mxGeometry width="50" height="50" relative="1" as="geometry">
            <mxPoint x="819" y="376.25" as="sourcePoint" />
            <mxPoint x="260" y="140" as="targetPoint" />
          </mxGeometry>
        </mxCell>
        <mxCell id="aQw6tkA5pOAqd_6tdOvo-389" value="" style="endArrow=none;html=1;rounded=0;fontSize=10;fontColor=#000000;entryX=0.52;entryY=0.833;entryDx=0;entryDy=0;entryPerimeter=0;" edge="1" parent="1" target="aQw6tkA5pOAqd_6tdOvo-47">
          <mxGeometry width="50" height="50" relative="1" as="geometry">
            <mxPoint x="1019.5" y="376.75" as="sourcePoint" />
            <mxPoint x="460.5" y="140.5" as="targetPoint" />
          </mxGeometry>
        </mxCell>
        <mxCell id="aQw6tkA5pOAqd_6tdOvo-390" value="" style="endArrow=none;html=1;rounded=0;fontSize=10;fontColor=#000000;" edge="1" parent="1">
          <mxGeometry width="50" height="50" relative="1" as="geometry">
            <mxPoint x="1297.5" y="375.5" as="sourcePoint" />
            <mxPoint x="350" y="140" as="targetPoint" />
          </mxGeometry>
        </mxCell>
        <mxCell id="aQw6tkA5pOAqd_6tdOvo-391" value="" style="endArrow=none;html=1;rounded=0;fontSize=10;fontColor=#000000;" edge="1" parent="1">
          <mxGeometry width="50" height="50" relative="1" as="geometry">
            <mxPoint x="374" y="375.5" as="sourcePoint" />
            <mxPoint x="499" y="140" as="targetPoint" />
          </mxGeometry>
        </mxCell>
        <mxCell id="aQw6tkA5pOAqd_6tdOvo-392" value="" style="endArrow=none;html=1;rounded=0;fontSize=10;fontColor=#000000;" edge="1" parent="1">
          <mxGeometry width="50" height="50" relative="1" as="geometry">
            <mxPoint x="415" y="375.5" as="sourcePoint" />
            <mxPoint x="821" y="140" as="targetPoint" />
          </mxGeometry>
        </mxCell>
        <mxCell id="aQw6tkA5pOAqd_6tdOvo-393" value="" style="endArrow=none;html=1;rounded=0;fontSize=10;fontColor=#000000;" edge="1" parent="1">
          <mxGeometry width="50" height="50" relative="1" as="geometry">
            <mxPoint x="454.5" y="375.5" as="sourcePoint" />
            <mxPoint x="1180" y="140" as="targetPoint" />
          </mxGeometry>
        </mxCell>
        <mxCell id="aQw6tkA5pOAqd_6tdOvo-394" value="" style="endArrow=none;html=1;rounded=0;fontSize=10;fontColor=#000000;" edge="1" parent="1">
          <mxGeometry width="50" height="50" relative="1" as="geometry">
            <mxPoint x="579" y="376" as="sourcePoint" />
            <mxPoint x="540" y="140" as="targetPoint" />
          </mxGeometry>
        </mxCell>
        <mxCell id="aQw6tkA5pOAqd_6tdOvo-395" value="" style="endArrow=none;html=1;rounded=0;fontSize=10;fontColor=#000000;" edge="1" parent="1">
          <mxGeometry width="50" height="50" relative="1" as="geometry">
            <mxPoint x="859" y="376.7499999999998" as="sourcePoint" />
            <mxPoint x="580" y="140" as="targetPoint" />
          </mxGeometry>
        </mxCell>
        <mxCell id="aQw6tkA5pOAqd_6tdOvo-396" value="" style="endArrow=none;html=1;rounded=0;fontSize=10;fontColor=#000000;" edge="1" parent="1">
          <mxGeometry width="50" height="50" relative="1" as="geometry">
            <mxPoint x="1062.5" y="376.7499999999998" as="sourcePoint" />
            <mxPoint x="618" y="140" as="targetPoint" />
          </mxGeometry>
        </mxCell>
        <mxCell id="aQw6tkA5pOAqd_6tdOvo-397" value="" style="endArrow=none;html=1;rounded=0;fontSize=10;fontColor=#000000;" edge="1" parent="1">
          <mxGeometry width="50" height="50" relative="1" as="geometry">
            <mxPoint x="1342.4999999999995" y="376.7499999999998" as="sourcePoint" />
            <mxPoint x="670" y="140" as="targetPoint" />
          </mxGeometry>
        </mxCell>
        <mxCell id="aQw6tkA5pOAqd_6tdOvo-398" value="" style="endArrow=none;html=1;rounded=0;fontSize=10;fontColor=#000000;" edge="1" parent="1">
          <mxGeometry width="50" height="50" relative="1" as="geometry">
            <mxPoint x="620" y="375.5" as="sourcePoint" />
            <mxPoint x="862" y="140" as="targetPoint" />
          </mxGeometry>
        </mxCell>
        <mxCell id="aQw6tkA5pOAqd_6tdOvo-399" value="" style="endArrow=none;html=1;rounded=0;fontSize=10;fontColor=#000000;" edge="1" parent="1">
          <mxGeometry width="50" height="50" relative="1" as="geometry">
            <mxPoint x="655" y="376" as="sourcePoint" />
            <mxPoint x="1220" y="140" as="targetPoint" />
          </mxGeometry>
        </mxCell>
        <mxCell id="aQw6tkA5pOAqd_6tdOvo-400" value="" style="endArrow=none;html=1;rounded=0;fontSize=10;fontColor=#000000;" edge="1" parent="1">
          <mxGeometry width="50" height="50" relative="1" as="geometry">
            <mxPoint x="896" y="375.4999999999998" as="sourcePoint" />
            <mxPoint x="900" y="140" as="targetPoint" />
          </mxGeometry>
        </mxCell>
        <mxCell id="aQw6tkA5pOAqd_6tdOvo-401" value="" style="endArrow=none;html=1;rounded=0;fontSize=10;fontColor=#000000;" edge="1" parent="1">
          <mxGeometry width="50" height="50" relative="1" as="geometry">
            <mxPoint x="940" y="375.4999999999998" as="sourcePoint" />
            <mxPoint x="1250" y="140" as="targetPoint" />
          </mxGeometry>
        </mxCell>
        <mxCell id="aQw6tkA5pOAqd_6tdOvo-402" value="" style="endArrow=none;html=1;rounded=0;fontSize=10;fontColor=#000000;" edge="1" parent="1">
          <mxGeometry width="50" height="50" relative="1" as="geometry">
            <mxPoint x="1103" y="376" as="sourcePoint" />
            <mxPoint x="939" y="140.5" as="targetPoint" />
          </mxGeometry>
        </mxCell>
        <mxCell id="aQw6tkA5pOAqd_6tdOvo-403" value="" style="endArrow=none;html=1;rounded=0;fontSize=10;fontColor=#000000;" edge="1" parent="1">
          <mxGeometry width="50" height="50" relative="1" as="geometry">
            <mxPoint x="1384.5" y="375.4999999999998" as="sourcePoint" />
            <mxPoint x="981" y="140" as="targetPoint" />
          </mxGeometry>
        </mxCell>
        <mxCell id="aQw6tkA5pOAqd_6tdOvo-404" value="" style="endArrow=none;html=1;rounded=0;fontSize=10;fontColor=#000000;" edge="1" parent="1">
          <mxGeometry width="50" height="50" relative="1" as="geometry">
            <mxPoint x="1137.5" y="376" as="sourcePoint" />
            <mxPoint x="1290" y="140" as="targetPoint" />
          </mxGeometry>
        </mxCell>
        <mxCell id="aQw6tkA5pOAqd_6tdOvo-405" value="" style="endArrow=none;html=1;rounded=0;fontSize=10;fontColor=#000000;" edge="1" parent="1">
          <mxGeometry width="50" height="50" relative="1" as="geometry">
            <mxPoint x="1419.4999999999995" y="376.7499999999998" as="sourcePoint" />
            <mxPoint x="1340" y="140" as="targetPoint" />
          </mxGeometry>
        </mxCell>
        <mxCell id="aQw6tkA5pOAqd_6tdOvo-406" value="" style="endArrow=none;html=1;rounded=0;fontSize=10;fontColor=#000000;" edge="1" parent="1">
          <mxGeometry width="50" height="50" relative="1" as="geometry">
            <mxPoint x="205" y="412" as="sourcePoint" />
            <mxPoint x="240" y="412" as="targetPoint" />
          </mxGeometry>
        </mxCell>
        <mxCell id="aQw6tkA5pOAqd_6tdOvo-407" value="" style="endArrow=none;html=1;rounded=0;fontSize=10;fontColor=#000000;" edge="1" parent="1">
          <mxGeometry width="50" height="50" relative="1" as="geometry">
            <mxPoint x="204" y="431.41" as="sourcePoint" />
            <mxPoint x="239" y="431.41" as="targetPoint" />
          </mxGeometry>
        </mxCell>
        <mxCell id="aQw6tkA5pOAqd_6tdOvo-408" value="" style="endArrow=none;html=1;rounded=0;fontSize=10;fontColor=#000000;" edge="1" parent="1">
          <mxGeometry width="50" height="50" relative="1" as="geometry">
            <mxPoint x="764.5" y="410.4100000000003" as="sourcePoint" />
            <mxPoint x="799.5" y="410.4100000000003" as="targetPoint" />
          </mxGeometry>
        </mxCell>
        <mxCell id="aQw6tkA5pOAqd_6tdOvo-409" value="" style="endArrow=none;html=1;rounded=0;fontSize=10;fontColor=#000000;" edge="1" parent="1">
          <mxGeometry width="50" height="50" relative="1" as="geometry">
            <mxPoint x="685" y="431.4100000000003" as="sourcePoint" />
            <mxPoint x="720" y="431.4100000000003" as="targetPoint" />
          </mxGeometry>
        </mxCell>
        <mxCell id="aQw6tkA5pOAqd_6tdOvo-410" value="" style="endArrow=none;html=1;rounded=0;fontSize=10;fontColor=#000000;" edge="1" parent="1">
          <mxGeometry width="50" height="50" relative="1" as="geometry">
            <mxPoint x="685" y="411.1600000000003" as="sourcePoint" />
            <mxPoint x="720" y="411.1600000000003" as="targetPoint" />
          </mxGeometry>
        </mxCell>
        <mxCell id="aQw6tkA5pOAqd_6tdOvo-411" value="" style="endArrow=none;html=1;rounded=0;fontSize=10;fontColor=#000000;" edge="1" parent="1">
          <mxGeometry width="50" height="50" relative="1" as="geometry">
            <mxPoint x="281" y="431.4100000000003" as="sourcePoint" />
            <mxPoint x="316" y="431.4100000000003" as="targetPoint" />
          </mxGeometry>
        </mxCell>
        <mxCell id="aQw6tkA5pOAqd_6tdOvo-412" value="" style="endArrow=none;html=1;rounded=0;fontSize=10;fontColor=#000000;" edge="1" parent="1">
          <mxGeometry width="50" height="50" relative="1" as="geometry">
            <mxPoint x="281" y="411.1600000000003" as="sourcePoint" />
            <mxPoint x="316" y="411.1600000000003" as="targetPoint" />
          </mxGeometry>
        </mxCell>
        <mxCell id="aQw6tkA5pOAqd_6tdOvo-414" value="" style="endArrow=none;html=1;rounded=0;fontSize=10;fontColor=#000000;" edge="1" parent="1">
          <mxGeometry width="50" height="50" relative="1" as="geometry">
            <mxPoint x="764.5" y="431.4100000000003" as="sourcePoint" />
            <mxPoint x="799.5" y="431.4100000000003" as="targetPoint" />
          </mxGeometry>
        </mxCell>
        <mxCell id="aQw6tkA5pOAqd_6tdOvo-415" value="" style="endArrow=none;html=1;rounded=0;fontSize=10;fontColor=#000000;" edge="1" parent="1">
          <mxGeometry width="50" height="50" relative="1" as="geometry">
            <mxPoint x="1164.5" y="426.7500000000003" as="sourcePoint" />
            <mxPoint x="1199.5" y="426.7500000000003" as="targetPoint" />
          </mxGeometry>
        </mxCell>
        <mxCell id="aQw6tkA5pOAqd_6tdOvo-416" value="" style="endArrow=none;html=1;rounded=0;fontSize=10;fontColor=#000000;" edge="1" parent="1">
          <mxGeometry width="50" height="50" relative="1" as="geometry">
            <mxPoint x="1163.5" y="411.1600000000003" as="sourcePoint" />
            <mxPoint x="1198.5" y="411.1600000000003" as="targetPoint" />
          </mxGeometry>
        </mxCell>
        <mxCell id="aQw6tkA5pOAqd_6tdOvo-417" value="" style="endArrow=none;html=1;rounded=0;fontSize=10;fontColor=#000000;" edge="1" parent="1">
          <mxGeometry width="50" height="50" relative="1" as="geometry">
            <mxPoint x="1241.5" y="426.75000000000034" as="sourcePoint" />
            <mxPoint x="1276.5" y="426.75000000000034" as="targetPoint" />
          </mxGeometry>
        </mxCell>
        <mxCell id="aQw6tkA5pOAqd_6tdOvo-418" value="" style="endArrow=none;html=1;rounded=0;fontSize=10;fontColor=#000000;" edge="1" parent="1">
          <mxGeometry width="50" height="50" relative="1" as="geometry">
            <mxPoint x="1241.5" y="411.1600000000003" as="sourcePoint" />
            <mxPoint x="1276.5" y="411.1600000000003" as="targetPoint" />
          </mxGeometry>
        </mxCell>
        <mxCell id="aQw6tkA5pOAqd_6tdOvo-419" value="" style="endArrow=none;html=1;rounded=0;fontSize=10;fontColor=#000000;" edge="1" parent="1">
          <mxGeometry width="50" height="50" relative="1" as="geometry">
            <mxPoint x="130" y="540" as="sourcePoint" />
            <mxPoint x="92" y="485" as="targetPoint" />
            <Array as="points">
              <mxPoint x="92" y="540" />
            </Array>
          </mxGeometry>
        </mxCell>
        <mxCell id="aQw6tkA5pOAqd_6tdOvo-420" value="" style="endArrow=none;html=1;rounded=0;fontSize=10;fontColor=#000000;" edge="1" parent="1">
          <mxGeometry width="50" height="50" relative="1" as="geometry">
            <mxPoint x="130" y="590" as="sourcePoint" />
            <mxPoint x="72" y="486" as="targetPoint" />
            <Array as="points">
              <mxPoint x="72" y="590" />
            </Array>
          </mxGeometry>
        </mxCell>
        <mxCell id="aQw6tkA5pOAqd_6tdOvo-421" value="" style="endArrow=none;html=1;rounded=0;fontSize=10;fontColor=#000000;exitX=-0.015;exitY=0.532;exitDx=0;exitDy=0;exitPerimeter=0;" edge="1" parent="1">
          <mxGeometry width="50" height="50" relative="1" as="geometry">
            <mxPoint x="131.4000000000001" y="641.6400000000001" as="sourcePoint" />
            <mxPoint x="50" y="486" as="targetPoint" />
            <Array as="points">
              <mxPoint x="50" y="643" />
            </Array>
          </mxGeometry>
        </mxCell>
        <mxCell id="aQw6tkA5pOAqd_6tdOvo-422" value="" style="endArrow=none;html=1;rounded=0;fontSize=10;fontColor=#000000;" edge="1" parent="1">
          <mxGeometry width="50" height="50" relative="1" as="geometry">
            <mxPoint x="614" y="641" as="sourcePoint" />
            <mxPoint x="532.6" y="485" as="targetPoint" />
            <Array as="points">
              <mxPoint x="532.6" y="641" />
            </Array>
          </mxGeometry>
        </mxCell>
        <mxCell id="aQw6tkA5pOAqd_6tdOvo-423" value="" style="endArrow=none;html=1;rounded=0;fontSize=10;fontColor=#000000;" edge="1" parent="1">
          <mxGeometry width="50" height="50" relative="1" as="geometry">
            <mxPoint x="611" y="590" as="sourcePoint" />
            <mxPoint x="553" y="486" as="targetPoint" />
            <Array as="points">
              <mxPoint x="553" y="590" />
            </Array>
          </mxGeometry>
        </mxCell>
        <mxCell id="aQw6tkA5pOAqd_6tdOvo-424" value="" style="endArrow=none;html=1;rounded=0;fontSize=10;fontColor=#000000;" edge="1" parent="1">
          <mxGeometry width="50" height="50" relative="1" as="geometry">
            <mxPoint x="613" y="540" as="sourcePoint" />
            <mxPoint x="575" y="485" as="targetPoint" />
            <Array as="points">
              <mxPoint x="575" y="540" />
            </Array>
          </mxGeometry>
        </mxCell>
        <mxCell id="aQw6tkA5pOAqd_6tdOvo-425" value="" style="endArrow=none;html=1;rounded=0;fontSize=10;fontColor=#000000;" edge="1" parent="1">
          <mxGeometry width="50" height="50" relative="1" as="geometry">
            <mxPoint x="1094.5" y="540" as="sourcePoint" />
            <mxPoint x="1070" y="485" as="targetPoint" />
            <Array as="points">
              <mxPoint x="1070" y="540" />
            </Array>
          </mxGeometry>
        </mxCell>
        <mxCell id="aQw6tkA5pOAqd_6tdOvo-426" value="" style="endArrow=none;html=1;rounded=0;fontSize=10;fontColor=#000000;" edge="1" parent="1">
          <mxGeometry width="50" height="50" relative="1" as="geometry">
            <mxPoint x="1094.5" y="590" as="sourcePoint" />
            <mxPoint x="1050" y="486" as="targetPoint" />
            <Array as="points">
              <mxPoint x="1050" y="590" />
            </Array>
          </mxGeometry>
        </mxCell>
        <mxCell id="aQw6tkA5pOAqd_6tdOvo-427" value="" style="endArrow=none;html=1;rounded=0;fontSize=10;fontColor=#000000;entryX=-0.038;entryY=1.046;entryDx=0;entryDy=0;entryPerimeter=0;" edge="1" parent="1">
          <mxGeometry width="50" height="50" relative="1" as="geometry">
            <mxPoint x="1089" y="644" as="sourcePoint" />
            <mxPoint x="1027.88" y="486.89999999999964" as="targetPoint" />
            <Array as="points">
              <mxPoint x="1028" y="644" />
            </Array>
          </mxGeometry>
        </mxCell>
        <mxCell id="aQw6tkA5pOAqd_6tdOvo-428" value="" style="endArrow=none;html=1;rounded=0;fontSize=10;fontColor=#000000;" edge="1" parent="1">
          <mxGeometry width="50" height="50" relative="1" as="geometry">
            <mxPoint x="385" y="539" as="sourcePoint" />
            <mxPoint x="422" y="484.25" as="targetPoint" />
            <Array as="points">
              <mxPoint x="422" y="539.25" />
            </Array>
          </mxGeometry>
        </mxCell>
        <mxCell id="aQw6tkA5pOAqd_6tdOvo-429" value="" style="endArrow=none;html=1;rounded=0;fontSize=10;fontColor=#000000;" edge="1" parent="1">
          <mxGeometry width="50" height="50" relative="1" as="geometry">
            <mxPoint x="384" y="588" as="sourcePoint" />
            <mxPoint x="445" y="483.4999999999998" as="targetPoint" />
            <Array as="points">
              <mxPoint x="445" y="588" />
            </Array>
          </mxGeometry>
        </mxCell>
        <mxCell id="aQw6tkA5pOAqd_6tdOvo-430" value="" style="endArrow=none;html=1;rounded=0;fontSize=10;fontColor=#000000;exitX=1.151;exitY=0.356;exitDx=0;exitDy=0;exitPerimeter=0;" edge="1" parent="1">
          <mxGeometry width="50" height="50" relative="1" as="geometry">
            <mxPoint x="386.03999999999996" y="641.1199999999999" as="sourcePoint" />
            <mxPoint x="468.5999999999999" y="484.25" as="targetPoint" />
            <Array as="points">
              <mxPoint x="468.6" y="640.25" />
            </Array>
          </mxGeometry>
        </mxCell>
        <mxCell id="aQw6tkA5pOAqd_6tdOvo-431" value="" style="endArrow=none;html=1;rounded=0;fontSize=10;fontColor=#000000;exitX=1.151;exitY=0.356;exitDx=0;exitDy=0;exitPerimeter=0;" edge="1" parent="1">
          <mxGeometry width="50" height="50" relative="1" as="geometry">
            <mxPoint x="865.72" y="641.8699999999999" as="sourcePoint" />
            <mxPoint x="948.28" y="485" as="targetPoint" />
            <Array as="points">
              <mxPoint x="948.28" y="641" />
            </Array>
          </mxGeometry>
        </mxCell>
        <mxCell id="aQw6tkA5pOAqd_6tdOvo-432" value="" style="endArrow=none;html=1;rounded=0;fontSize=10;fontColor=#000000;" edge="1" parent="1">
          <mxGeometry width="50" height="50" relative="1" as="geometry">
            <mxPoint x="866" y="588.5" as="sourcePoint" />
            <mxPoint x="927" y="483.9999999999998" as="targetPoint" />
            <Array as="points">
              <mxPoint x="927" y="588.5" />
            </Array>
          </mxGeometry>
        </mxCell>
        <mxCell id="aQw6tkA5pOAqd_6tdOvo-433" value="" style="endArrow=none;html=1;rounded=0;fontSize=10;fontColor=#000000;" edge="1" parent="1">
          <mxGeometry width="50" height="50" relative="1" as="geometry">
            <mxPoint x="867.5" y="539.75" as="sourcePoint" />
            <mxPoint x="904.5" y="485" as="targetPoint" />
            <Array as="points">
              <mxPoint x="904.5" y="540" />
            </Array>
          </mxGeometry>
        </mxCell>
        <mxCell id="aQw6tkA5pOAqd_6tdOvo-434" value="" style="endArrow=none;html=1;rounded=0;fontSize=10;fontColor=#000000;" edge="1" parent="1">
          <mxGeometry width="50" height="50" relative="1" as="geometry">
            <mxPoint x="1347" y="700" as="sourcePoint" />
            <mxPoint x="1429.0599999999997" y="484.25" as="targetPoint" />
            <Array as="points">
              <mxPoint x="1427" y="700" />
            </Array>
          </mxGeometry>
        </mxCell>
        <mxCell id="aQw6tkA5pOAqd_6tdOvo-435" value="" style="endArrow=none;html=1;rounded=0;fontSize=10;fontColor=#000000;" edge="1" parent="1">
          <mxGeometry width="50" height="50" relative="1" as="geometry">
            <mxPoint x="1090" y="700" as="sourcePoint" />
            <mxPoint x="1013.059999999999" y="485" as="targetPoint" />
            <Array as="points">
              <mxPoint x="1011" y="700.75" />
            </Array>
          </mxGeometry>
        </mxCell>
        <mxCell id="aQw6tkA5pOAqd_6tdOvo-438" value="" style="endArrow=none;html=1;rounded=0;fontSize=10;fontColor=#000000;" edge="1" parent="1">
          <mxGeometry width="50" height="50" relative="1" as="geometry">
            <mxPoint x="1349" y="641" as="sourcePoint" />
            <mxPoint x="1408.4999999999998" y="485" as="targetPoint" />
            <Array as="points">
              <mxPoint x="1408.5" y="641" />
            </Array>
          </mxGeometry>
        </mxCell>
        <mxCell id="aQw6tkA5pOAqd_6tdOvo-439" value="" style="endArrow=none;html=1;rounded=0;fontSize=10;fontColor=#000000;" edge="1" parent="1">
          <mxGeometry width="50" height="50" relative="1" as="geometry">
            <mxPoint x="1347" y="590" as="sourcePoint" />
            <mxPoint x="1386.5" y="484.9999999999998" as="targetPoint" />
            <Array as="points">
              <mxPoint x="1386.5" y="589.5" />
            </Array>
          </mxGeometry>
        </mxCell>
        <mxCell id="aQw6tkA5pOAqd_6tdOvo-440" value="" style="endArrow=none;html=1;rounded=0;fontSize=10;fontColor=#000000;" edge="1" parent="1">
          <mxGeometry width="50" height="50" relative="1" as="geometry">
            <mxPoint x="1348" y="540" as="sourcePoint" />
            <mxPoint x="1369.5" y="485" as="targetPoint" />
            <Array as="points">
              <mxPoint x="1369.5" y="540" />
            </Array>
          </mxGeometry>
        </mxCell>
        <mxCell id="aQw6tkA5pOAqd_6tdOvo-441" value="&lt;b&gt;&amp;nbsp; &amp;nbsp;oob-server&lt;/b&gt;" style="shape=ext;double=1;rounded=0;whiteSpace=wrap;html=1;fillStyle=auto;strokeWidth=3;strokeColor=#000000;glass=0;shadow=0;sketch=0;align=left;" vertex="1" parent="1">
          <mxGeometry x="1498" y="211.5" width="160" height="40" as="geometry" />
        </mxCell>
        <mxCell id="aQw6tkA5pOAqd_6tdOvo-442" value="" style="whiteSpace=wrap;html=1;shape=mxgraph.basic.document;rounded=0;shadow=0;glass=0;labelBackgroundColor=#FF8000;labelBorderColor=none;sketch=0;fillStyle=solid;fontSize=10;fontColor=#000000;strokeColor=#000000;strokeWidth=2;fillColor=none;" vertex="1" parent="1">
          <mxGeometry x="1595.5" y="221.5" width="50" height="20" as="geometry" />
        </mxCell>
        <mxCell id="aQw6tkA5pOAqd_6tdOvo-443" value="&lt;b&gt;oob-switch&lt;/b&gt;" style="shape=ext;double=1;rounded=0;whiteSpace=wrap;html=1;fillStyle=auto;strokeWidth=3;strokeColor=#009900;glass=0;shadow=0;sketch=0;align=left;" vertex="1" parent="1">
          <mxGeometry x="1498" y="331.5" width="160" height="40" as="geometry" />
        </mxCell>
        <mxCell id="aQw6tkA5pOAqd_6tdOvo-444" value="" style="verticalLabelPosition=bottom;verticalAlign=top;html=1;shape=mxgraph.basic.rect;fillColor2=none;strokeWidth=1;size=20;indent=5;rounded=0;shadow=0;glass=0;sketch=0;fillStyle=auto;fillColor=#000000;" vertex="1" parent="1">
          <mxGeometry x="1608" y="346.5" width="5" height="10" as="geometry" />
        </mxCell>
        <mxCell id="aQw6tkA5pOAqd_6tdOvo-445" value="" style="verticalLabelPosition=bottom;verticalAlign=top;html=1;shape=mxgraph.basic.rect;fillColor2=none;strokeWidth=1;size=20;indent=5;rounded=0;shadow=0;glass=0;sketch=0;fillStyle=auto;fillColor=#000000;" vertex="1" parent="1">
          <mxGeometry x="1618" y="346.5" width="5" height="10" as="geometry" />
        </mxCell>
        <mxCell id="aQw6tkA5pOAqd_6tdOvo-446" value="" style="verticalLabelPosition=bottom;verticalAlign=top;html=1;shape=mxgraph.basic.rect;fillColor2=none;strokeWidth=1;size=20;indent=5;rounded=0;shadow=0;glass=0;sketch=0;fillStyle=auto;fillColor=#000000;" vertex="1" parent="1">
          <mxGeometry x="1628" y="346.5" width="5" height="10" as="geometry" />
        </mxCell>
        <mxCell id="aQw6tkA5pOAqd_6tdOvo-447" value="" style="verticalLabelPosition=bottom;verticalAlign=top;html=1;shape=mxgraph.basic.rect;fillColor2=none;strokeWidth=1;size=20;indent=5;rounded=0;shadow=0;glass=0;sketch=0;fillStyle=solid;fillColor=#0D0D0D;" vertex="1" parent="1">
          <mxGeometry x="1638" y="346.5" width="5" height="10" as="geometry" />
        </mxCell>
        <mxCell id="aQw6tkA5pOAqd_6tdOvo-455" value="" style="verticalLabelPosition=bottom;verticalAlign=top;html=1;shape=mxgraph.basic.rect;fillColor2=none;strokeWidth=1;size=20;indent=5;rounded=0;shadow=0;glass=0;labelBackgroundColor=#FFFFFF;labelBorderColor=none;sketch=0;fillStyle=solid;fontSize=14;fontColor=#000000;fillColor=none;" vertex="1" parent="1">
          <mxGeometry x="1517.5" y="423.5" width="120" height="60" as="geometry" />
        </mxCell>
        <mxCell id="aQw6tkA5pOAqd_6tdOvo-458" value="&lt;b&gt;to e0 on All devices&lt;/b&gt;" style="whiteSpace=wrap;html=1;rounded=0;shadow=0;glass=0;labelBackgroundColor=#FFFFFF;labelBorderColor=#FFFFFF;sketch=0;fillStyle=solid;fontSize=14;fontColor=#000000;strokeColor=#000000;strokeWidth=3;fillColor=none;" vertex="1" parent="1">
          <mxGeometry x="1518.5" y="423.5" width="120" height="60" as="geometry" />
        </mxCell>
        <mxCell id="aQw6tkA5pOAqd_6tdOvo-459" value="" style="endArrow=none;html=1;rounded=0;fontSize=14;fontColor=#000000;entryX=0.5;entryY=1;entryDx=0;entryDy=0;exitX=0.5;exitY=0;exitDx=0;exitDy=0;" edge="1" parent="1" source="aQw6tkA5pOAqd_6tdOvo-458" target="aQw6tkA5pOAqd_6tdOvo-443">
          <mxGeometry width="50" height="50" relative="1" as="geometry">
            <mxPoint x="1563" y="573.25" as="sourcePoint" />
            <mxPoint x="1613" y="523.25" as="targetPoint" />
          </mxGeometry>
        </mxCell>
        <object label="" id="aQw6tkA5pOAqd_6tdOvo-460">
          <mxCell style="verticalLabelPosition=bottom;verticalAlign=top;html=1;shape=mxgraph.basic.rect;fillColor2=none;strokeWidth=1;size=20;indent=5;rounded=0;shadow=0;glass=0;sketch=0;fillStyle=auto;fillColor=#FF8000;strokeColor=#d79b00;" vertex="1" parent="1">
            <mxGeometry x="1495" y="306.5" width="40" height="20" as="geometry" />
          </mxCell>
        </object>
        <mxCell id="aQw6tkA5pOAqd_6tdOvo-461" value="&lt;font style=&quot;font-size: 10px;&quot;&gt;&lt;b style=&quot;&quot;&gt;swp1&lt;/b&gt;&lt;/font&gt;" style="text;html=1;align=center;verticalAlign=middle;resizable=0;points=[];autosize=1;strokeColor=none;fillColor=none;labelBorderColor=none;labelBackgroundColor=none;" vertex="1" parent="1">
          <mxGeometry x="1490" y="301.5" width="50" height="30" as="geometry" />
        </mxCell>
        <object label="" id="aQw6tkA5pOAqd_6tdOvo-462">
          <mxCell style="verticalLabelPosition=bottom;verticalAlign=top;html=1;shape=mxgraph.basic.rect;fillColor2=none;strokeWidth=1;size=20;indent=5;rounded=0;shadow=0;glass=0;sketch=0;fillStyle=auto;fillColor=#FF8000;strokeColor=#d79b00;" vertex="1" parent="1">
            <mxGeometry x="1618" y="251.5" width="40" height="20" as="geometry" />
          </mxCell>
        </object>
        <mxCell id="aQw6tkA5pOAqd_6tdOvo-463" value="&lt;font style=&quot;font-size: 10px;&quot;&gt;&lt;b style=&quot;&quot;&gt;e1&lt;/b&gt;&lt;/font&gt;" style="text;html=1;align=center;verticalAlign=middle;resizable=0;points=[];autosize=1;strokeColor=none;fillColor=none;labelBorderColor=none;labelBackgroundColor=none;" vertex="1" parent="1">
          <mxGeometry x="1623" y="246.5" width="30" height="30" as="geometry" />
        </mxCell>
        <mxCell id="aQw6tkA5pOAqd_6tdOvo-464" value="" style="endArrow=none;html=1;rounded=0;fontSize=14;fontColor=#000000;" edge="1" parent="1">
          <mxGeometry width="50" height="50" relative="1" as="geometry">
            <mxPoint x="1538" y="311.5" as="sourcePoint" />
            <mxPoint x="1638.5" y="271.5" as="targetPoint" />
          </mxGeometry>
        </mxCell>
        <mxCell id="aQw6tkA5pOAqd_6tdOvo-465" value="" style="ellipse;shape=cloud;whiteSpace=wrap;html=1;rounded=0;shadow=0;glass=0;labelBackgroundColor=#FFFFFF;labelBorderColor=#FFFFFF;sketch=0;fillStyle=solid;fontSize=14;fontColor=#000000;strokeColor=#000000;strokeWidth=3;fillColor=none;" vertex="1" parent="1">
          <mxGeometry x="1539.5" y="63.5" width="120" height="80" as="geometry" />
        </mxCell>
        <object label="" id="aQw6tkA5pOAqd_6tdOvo-466">
          <mxCell style="verticalLabelPosition=bottom;verticalAlign=top;html=1;shape=mxgraph.basic.rect;fillColor2=none;strokeWidth=1;size=20;indent=5;rounded=0;shadow=0;glass=0;sketch=0;fillStyle=auto;fillColor=#FF8000;strokeColor=#d79b00;" vertex="1" parent="1">
            <mxGeometry x="1498" y="186.5" width="40" height="20" as="geometry" />
          </mxCell>
        </object>
        <mxCell id="aQw6tkA5pOAqd_6tdOvo-467" value="&lt;font style=&quot;font-size: 10px;&quot;&gt;&lt;b style=&quot;&quot;&gt;e0&lt;/b&gt;&lt;/font&gt;" style="text;html=1;align=center;verticalAlign=middle;resizable=0;points=[];autosize=1;strokeColor=none;fillColor=none;labelBorderColor=none;labelBackgroundColor=none;" vertex="1" parent="1">
          <mxGeometry x="1503" y="181.5" width="30" height="30" as="geometry" />
        </mxCell>
        <mxCell id="aQw6tkA5pOAqd_6tdOvo-468" value="" style="endArrow=none;html=1;rounded=0;fontSize=14;fontColor=#000000;entryX=0.55;entryY=0.95;entryDx=0;entryDy=0;entryPerimeter=0;" edge="1" parent="1" target="aQw6tkA5pOAqd_6tdOvo-465">
          <mxGeometry width="50" height="50" relative="1" as="geometry">
            <mxPoint x="1520" y="181.5" as="sourcePoint" />
            <mxPoint x="1567.5" y="91.5" as="targetPoint" />
          </mxGeometry>
        </mxCell>
      </root>
    </mxGraphModel>
  </diagram>
</mxfile>
